<?xml version="1.0" standalone="no"?>
<!DOCTYPE svg PUBLIC "-//W3C//DTD SVG 20010904//EN"
 "http://www.w3.org/TR/2001/REC-SVG-20010904/DTD/svg10.dtd">
<svg version="1.0" xmlns="http://www.w3.org/2000/svg"
 width="1024.000000pt" height="1536.000000pt" viewBox="0 0 1024.000000 1536.000000"
 preserveAspectRatio="xMidYMid meet">

<g transform="translate(0.000000,1536.000000) scale(0.100000,-0.100000)"
fill="#000000" stroke="none">
<path d="M3810 15350 c0 -5 4 -10 9 -10 6 0 13 5 16 10 3 6 -1 10 -9 10 -9 0
-16 -4 -16 -10z"/>
<path d="M4460 15344 c0 -17 22 -14 28 4 2 7 -3 12 -12 12 -9 0 -16 -7 -16
-16z"/>
<path d="M4940 15350 c0 -5 7 -10 15 -10 8 0 15 5 15 10 0 6 -7 10 -15 10 -8
0 -15 -4 -15 -10z"/>
<path d="M5125 15350 c3 -5 12 -10 20 -10 8 0 17 5 20 10 4 6 -5 10 -20 10
-15 0 -24 -4 -20 -10z"/>
<path d="M5748 15353 c6 -2 18 -2 25 0 6 3 1 5 -13 5 -14 0 -19 -2 -12 -5z"/>
<path d="M1057 15331 c3 -11 -5 -28 -21 -44 -14 -14 -26 -31 -26 -37 0 -16 27
-23 42 -11 7 7 22 18 33 25 19 14 19 15 2 33 -9 11 -17 27 -17 36 0 9 -4 17
-9 17 -5 0 -7 -8 -4 -19z"/>
<path d="M5550 15342 c0 -12 25 -22 53 -22 17 1 19 2 7 9 -27 16 -60 22 -60
13z"/>
<path d="M8795 15340 c-3 -5 -1 -10 4 -10 6 0 11 5 11 10 0 6 -2 10 -4 10 -3
0 -8 -4 -11 -10z"/>
<path d="M5363 15323 c-23 -9 -14 -25 10 -18 31 10 45 25 22 24 -11 0 -26 -3
-32 -6z"/>
<path d="M5285 15310 c-3 -5 1 -10 9 -10 9 0 16 5 16 10 0 6 -4 10 -9 10 -6 0
-13 -4 -16 -10z"/>
<path d="M9811 15301 c-22 -22 -27 -41 -11 -41 6 0 10 4 10 9 0 5 7 17 16 26
9 9 14 18 11 21 -3 3 -15 -4 -26 -15z"/>
<path d="M690 15296 c0 -18 39 -31 52 -18 15 15 0 32 -28 32 -14 0 -24 -6 -24
-14z"/>
<path d="M5480 15295 c-10 -13 -9 -15 9 -15 12 0 21 6 21 15 0 8 -4 15 -9 15
-5 0 -14 -7 -21 -15z"/>
<path d="M7863 15296 c-13 -6 -23 -14 -23 -18 0 -11 18 -10 25 2 12 19 25 10
25 -19 0 -16 -7 -34 -15 -41 -17 -14 -20 -40 -6 -40 6 0 16 9 25 21 l14 21 12
-21 c6 -12 16 -18 22 -15 7 5 5 11 -6 19 -9 7 -18 21 -20 31 -3 11 -7 27 -11
37 -5 11 -2 17 6 17 11 0 11 3 -1 10 -17 11 -18 11 -47 -4z"/>
<path d="M3670 15280 c0 -5 5 -10 11 -10 5 0 7 5 4 10 -3 6 -8 10 -11 10 -2 0
-4 -4 -4 -10z"/>
<path d="M8751 15276 c-16 -19 -11 -29 8 -17 7 5 12 14 9 21 -3 9 -8 7 -17 -4z"/>
<path d="M650 15254 c0 -14 3 -14 15 -4 8 7 15 14 15 16 0 2 -7 4 -15 4 -8 0
-15 -7 -15 -16z"/>
<path d="M5400 15260 c0 -5 7 -10 16 -10 8 0 12 5 9 10 -3 6 -10 10 -16 10 -5
0 -9 -4 -9 -10z"/>
<path d="M5515 15259 c-4 -6 -5 -13 -2 -16 7 -7 27 6 27 18 0 12 -17 12 -25
-2z"/>
<path d="M8616 15254 c-4 -9 -4 -19 -2 -21 8 -8 26 8 26 23 0 19 -16 18 -24
-2z"/>
<path d="M8770 15244 c-46 -26 -42 -27 23 -3 20 7 37 17 37 21 0 12 -12 9 -60
-18z"/>
<path d="M8330 15249 c0 -5 5 -7 10 -4 6 3 10 8 10 11 0 2 -4 4 -10 4 -5 0
-10 -5 -10 -11z"/>
<path d="M9240 15240 c0 -5 5 -10 10 -10 6 0 10 5 10 10 0 6 -4 10 -10 10 -5
0 -10 -4 -10 -10z"/>
<path d="M4930 15220 c0 -5 7 -10 15 -10 8 0 15 5 15 10 0 6 -7 10 -15 10 -8
0 -15 -4 -15 -10z"/>
<path d="M3996 15197 c-11 -8 -15 -17 -10 -20 14 -8 37 8 33 22 -3 8 -10 8
-23 -2z"/>
<path d="M7800 15190 c0 -5 5 -10 11 -10 5 0 7 5 4 10 -3 6 -8 10 -11 10 -2 0
-4 -4 -4 -10z"/>
<path d="M3525 15180 c4 -6 11 -8 16 -5 14 9 11 15 -7 15 -8 0 -12 -5 -9 -10z"/>
<path d="M8790 15175 c-7 -9 -8 -15 -2 -15 5 0 12 7 16 15 3 8 4 15 2 15 -2 0
-9 -7 -16 -15z"/>
<path d="M3941 15157 c-6 -8 -8 -17 -4 -20 7 -8 33 11 33 24 0 13 -16 11 -29
-4z"/>
<path d="M7885 15159 c-4 -6 -5 -12 -2 -15 7 -7 37 7 37 17 0 13 -27 11 -35
-2z"/>
<path d="M980 15152 c-36 -12 -33 -54 3 -48 12 3 25 5 30 5 4 1 7 10 7 20 0
21 -17 31 -40 23z"/>
<path d="M4838 15153 c7 -3 16 -2 19 1 4 3 -2 6 -13 5 -11 0 -14 -3 -6 -6z"/>
<path d="M3730 15130 c0 -5 7 -10 15 -10 8 0 15 5 15 10 0 6 -7 10 -15 10 -8
0 -15 -4 -15 -10z"/>
<path d="M7835 15130 c-3 -5 -4 -14 0 -19 3 -6 -3 -14 -12 -20 -17 -9 -17 -10
0 -17 22 -8 30 -1 33 31 3 26 -10 42 -21 25z"/>
<path d="M9680 15130 c0 -5 5 -10 11 -10 5 0 7 5 4 10 -3 6 -8 10 -11 10 -2 0
-4 -4 -4 -10z"/>
<path d="M4886 15111 c5 -5 23 -12 41 -14 24 -4 30 -2 26 9 -3 8 -19 14 -41
14 -22 0 -32 -4 -26 -9z"/>
<path d="M8225 15100 c-4 -6 -4 -10 -1 -10 2 0 11 -3 20 -6 9 -3 16 -2 16 4 0
14 -28 23 -35 12z"/>
<path d="M8973 15097 c2 -7 18 -13 36 -15 24 -3 32 0 29 10 -3 7 -19 14 -37
15 -20 1 -31 -3 -28 -10z"/>
<path d="M7753 15066 c-25 -12 -30 -26 -10 -26 18 0 52 26 41 32 -5 2 -19 0
-31 -6z"/>
<path d="M8770 15065 c-14 -16 -10 -18 14 -9 9 3 16 10 16 15 0 14 -16 11 -30
-6z"/>
<path d="M4485 15030 c-10 -22 -15 -43 -12 -47 4 -3 7 -1 7 5 0 7 9 21 20 32
11 11 20 27 20 35 0 27 -17 15 -35 -25z"/>
<path d="M8127 15063 c-2 -5 4 -16 15 -25 10 -10 18 -13 18 -7 0 14 -28 41
-33 32z"/>
<path d="M7590 15050 c-8 -5 -11 -12 -7 -16 4 -4 13 -2 19 4 15 15 7 24 -12
12z"/>
<path d="M8792 15025 c-13 -29 -5 -33 14 -7 15 20 18 32 6 32 -5 0 -14 -11
-20 -25z"/>
<path d="M10200 15035 c-7 -8 -19 -15 -27 -15 -8 0 -11 -4 -8 -10 3 -5 17 -10
31 -10 19 0 24 5 24 25 0 29 -3 31 -20 10z"/>
<path d="M7797 15026 c-4 -10 -5 -21 -2 -24 9 -9 17 6 13 25 -3 17 -4 17 -11
-1z"/>
<path d="M647 15012 c-23 -25 -21 -34 4 -30 12 2 28 13 37 26 13 20 13 22 -5
22 -11 0 -27 -8 -36 -18z"/>
<path d="M9488 15007 c-16 -13 -28 -28 -28 -35 0 -18 14 -14 28 8 7 11 21 20
32 20 13 0 18 5 14 15 -8 20 -14 19 -46 -8z"/>
<path d="M4013 15004 c-7 -19 0 -26 21 -18 20 8 21 20 1 28 -9 3 -18 -1 -22
-10z"/>
<path d="M9940 15010 c0 -5 5 -10 11 -10 5 0 7 5 4 10 -3 6 -8 10 -11 10 -2 0
-4 -4 -4 -10z"/>
<path d="M9865 14980 c-17 -18 -17 -20 -1 -20 9 0 19 7 23 15 9 25 -2 27 -22
5z"/>
<path d="M8825 14920 c-3 -5 -1 -10 4 -10 6 0 11 5 11 10 0 6 -2 10 -4 10 -3
0 -8 -4 -11 -10z"/>
<path d="M9070 14916 c0 -18 6 -19 35 -6 11 5 15 9 8 9 -6 1 -18 4 -27 7 -11
4 -16 1 -16 -10z"/>
<path d="M4881 14896 c-10 -12 -8 -13 9 -9 25 7 37 23 17 23 -8 0 -20 -6 -26
-14z"/>
<path d="M4847 14825 c-6 -39 2 -105 13 -105 4 0 13 6 19 14 7 8 23 17 36 20
30 8 32 22 4 36 -11 7 -25 25 -31 41 -14 39 -34 37 -41 -6z"/>
<path d="M9031 14831 c-8 -14 -8 -22 0 -27 8 -4 4 -13 -12 -25 -25 -20 -11
-25 26 -10 11 5 25 5 31 0 7 -5 11 -3 11 6 0 8 -7 15 -15 15 -8 0 -12 6 -9 13
3 7 -1 21 -8 31 -13 17 -14 17 -24 -3z"/>
<path d="M6455 14816 c-11 -8 -17 -18 -12 -22 10 -10 61 8 59 21 -2 16 -26 17
-47 1z"/>
<path d="M8945 14819 c-10 -15 3 -25 16 -12 7 7 7 13 1 17 -6 3 -14 1 -17 -5z"/>
<path d="M9680 14801 c0 -11 29 -35 35 -29 10 9 -7 38 -21 38 -8 0 -14 -4 -14
-9z"/>
<path d="M8666 14772 c-3 -6 -1 -14 5 -17 15 -10 25 3 12 16 -7 7 -13 7 -17 1z"/>
<path d="M8968 14773 c7 -3 16 -2 19 1 4 3 -2 6 -13 5 -11 0 -14 -3 -6 -6z"/>
<path d="M9908 14753 c7 -3 16 -2 19 1 4 3 -2 6 -13 5 -11 0 -14 -3 -6 -6z"/>
<path d="M5523 14732 c-6 -4 -14 -20 -17 -35 -3 -15 -8 -38 -11 -51 -9 -43 22
-40 51 5 24 38 24 42 9 65 -17 27 -16 26 -32 16z"/>
<path d="M8927 14723 c-28 -8 -54 -24 -63 -39 -9 -13 -25 -24 -35 -24 -11 0
-19 -4 -19 -10 0 -18 21 -11 60 20 21 17 45 30 53 30 8 0 25 9 38 20 28 22 29
22 -34 3z"/>
<path d="M4802 14645 c-6 -14 -8 -25 -3 -25 13 0 42 36 34 43 -12 12 -20 8
-31 -18z"/>
<path d="M8347 14656 c-7 -18 1 -26 18 -19 8 2 11 11 8 19 -7 18 -19 18 -26 0z"/>
<path d="M4453 14644 c-7 -18 11 -39 26 -30 17 11 13 46 -4 46 -9 0 -18 -7
-22 -16z"/>
<path d="M8272 14629 c-10 -15 -10 -19 0 -19 7 0 19 4 26 9 11 6 10 10 0 19
-11 8 -17 6 -26 -9z"/>
<path d="M4575 14600 c-3 -5 -2 -10 4 -10 5 0 13 5 16 10 3 6 2 10 -4 10 -5 0
-13 -4 -16 -10z"/>
<path d="M8700 14590 c-12 -8 -11 -10 7 -10 12 0 25 5 28 10 8 13 -15 13 -35
0z"/>
<path d="M2236 14573 c-5 -11 0 -22 11 -31 15 -11 20 -10 30 4 9 13 10 21 2
31 -16 18 -36 16 -43 -4z"/>
<path d="M4350 14551 c-13 -25 0 -34 35 -25 18 4 24 11 21 21 -3 8 -6 17 -6
19 0 13 -41 1 -50 -15z"/>
<path d="M8576 14546 c-9 -14 -12 -27 -8 -30 13 -8 52 23 52 40 0 22 -26 16
-44 -10z"/>
<path d="M10070 14549 c0 -5 5 -7 10 -4 6 3 10 8 10 11 0 2 -4 4 -10 4 -5 0
-10 -5 -10 -11z"/>
<path d="M10215 14510 c-3 -5 -1 -10 4 -10 6 0 11 5 11 10 0 6 -2 10 -4 10 -3
0 -8 -4 -11 -10z"/>
<path d="M4646 14404 c-4 -9 -4 -19 -1 -23 8 -7 41 14 38 25 -4 17 -30 15 -37
-2z"/>
<path d="M8480 14350 c-8 -5 -12 -11 -9 -14 2 -3 11 -1 19 4 8 5 12 11 9 14
-2 3 -11 1 -19 -4z"/>
<path d="M8176 14304 c-4 -10 -1 -14 6 -12 15 5 23 28 10 28 -5 0 -13 -7 -16
-16z"/>
<path d="M9156 14295 c4 -8 11 -15 16 -15 6 0 5 6 -2 15 -7 8 -14 15 -16 15
-2 0 -1 -7 2 -15z"/>
<path d="M6182 14278 c6 -16 36 -34 44 -26 3 4 4 14 1 23 -7 17 -51 21 -45 3z"/>
<path d="M9916 14234 c-5 -14 -4 -15 9 -4 17 14 19 20 6 20 -5 0 -12 -7 -15
-16z"/>
<path d="M10170 14173 c0 -9 -10 -27 -22 -40 -26 -28 -6 -31 22 -3 21 21 27
60 10 60 -5 0 -10 -8 -10 -17z"/>
<path d="M8963 14163 c-15 -5 -18 -33 -4 -33 13 0 33 28 24 33 -4 2 -14 2 -20
0z"/>
<path d="M9310 14136 c0 -9 -4 -16 -8 -16 -8 0 -32 -43 -32 -57 0 -3 7 0 15 7
17 14 39 4 31 -16 -3 -8 1 -14 9 -14 8 0 15 9 15 19 0 11 5 23 10 26 16 10 11
22 -11 28 -12 3 -18 10 -15 16 4 5 2 12 -4 16 -5 3 -10 -1 -10 -9z"/>
<path d="M8998 14123 c7 -3 16 -2 19 1 4 3 -2 6 -13 5 -11 0 -14 -3 -6 -6z"/>
<path d="M4930 14064 c0 -8 5 -12 10 -9 6 4 8 11 5 16 -9 14 -15 11 -15 -7z"/>
<path d="M9770 14066 c0 -8 5 -18 10 -21 6 -3 10 3 10 14 0 12 -4 21 -10 21
-5 0 -10 -6 -10 -14z"/>
<path d="M2153 14049 c-25 -9 -27 -16 -14 -37 6 -10 12 -7 25 13 21 32 19 36
-11 24z"/>
<path d="M9210 14051 c0 -5 6 -12 13 -14 6 -3 0 -6 -14 -6 -14 -1 -34 -8 -45
-16 -18 -14 -18 -14 7 -15 14 0 34 7 45 15 10 8 28 15 38 15 19 0 20 7 1 10
-5 1 -18 6 -27 11 -11 6 -18 6 -18 0z"/>
<path d="M7992 14031 c2 -7 7 -12 11 -12 12 1 9 15 -3 20 -7 2 -11 -2 -8 -8z"/>
<path d="M8012 13925 c0 -16 2 -22 5 -12 2 9 2 23 0 30 -3 6 -5 -1 -5 -18z"/>
<path d="M8957 13883 c-4 -3 -7 -11 -7 -17 0 -6 5 -5 12 2 6 6 9 14 7 17 -3 3
-9 2 -12 -2z"/>
<path d="M9595 13870 c3 -5 10 -10 16 -10 5 0 9 5 9 10 0 6 -7 10 -16 10 -8 0
-12 -4 -9 -10z"/>
<path d="M9835 13820 c3 -5 10 -10 16 -10 5 0 9 5 9 10 0 6 -7 10 -16 10 -8 0
-12 -4 -9 -10z"/>
<path d="M9890 13750 c0 -5 5 -10 10 -10 6 0 10 5 10 10 0 6 -4 10 -10 10 -5
0 -10 -4 -10 -10z"/>
<path d="M8080 13680 c0 -5 5 -10 10 -10 6 0 10 5 10 10 0 6 -4 10 -10 10 -5
0 -10 -4 -10 -10z"/>
<path d="M9278 13623 c7 -3 16 -2 19 1 4 3 -2 6 -13 5 -11 0 -14 -3 -6 -6z"/>
<path d="M7272 13494 c2 -11 11 -20 22 -22 13 -3 17 1 14 14 -2 11 -11 20 -22
22 -13 3 -17 -1 -14 -14z"/>
<path d="M9141 13466 c-18 -22 2 -25 22 -4 13 13 14 18 3 18 -7 0 -19 -6 -25
-14z"/>
<path d="M7027 13463 c-12 -11 -8 -23 8 -23 8 0 15 7 15 15 0 16 -12 20 -23 8z"/>
<path d="M9650 13390 c0 -5 9 -10 21 -10 11 0 17 5 14 10 -3 6 -13 10 -21 10
-8 0 -14 -4 -14 -10z"/>
<path d="M9290 13340 c0 -5 5 -10 10 -10 6 0 10 5 10 10 0 6 -4 10 -10 10 -5
0 -10 -4 -10 -10z"/>
<path d="M8145 13300 c-3 -5 1 -10 9 -10 9 0 16 5 16 10 0 6 -4 10 -9 10 -6 0
-13 -4 -16 -10z"/>
<path d="M10216 13295 c-3 -8 -1 -15 4 -15 6 0 10 7 10 15 0 8 -2 15 -4 15 -2
0 -6 -7 -10 -15z"/>
<path d="M9840 13200 c-8 -5 -12 -12 -9 -15 4 -3 12 1 19 10 14 17 11 19 -10
5z"/>
<path d="M9110 13152 c0 -5 7 -17 16 -28 14 -17 15 -17 10 -1 -3 10 -6 23 -6
28 0 5 -4 9 -10 9 -5 0 -10 -4 -10 -8z"/>
<path d="M10224 13073 c6 -25 3 -31 -19 -41 -24 -11 -25 -11 -15 9 7 11 9 23
6 27 -3 3 -6 0 -6 -6 0 -6 -7 -9 -15 -6 -11 5 -13 2 -9 -10 4 -10 1 -16 -7
-16 -11 0 -11 -2 1 -10 31 -19 -44 -26 -95 -8 -5 1 -12 -1 -14 -7 -3 -5 6 -13
20 -17 75 -20 123 -27 144 -22 23 6 25 11 25 64 0 33 -5 62 -11 66 -8 4 -9 -3
-5 -23z"/>
<path d="M9334 13072 c-15 -10 -25 -42 -14 -42 6 0 10 -14 10 -31 0 -35 23
-36 28 -2 2 11 13 25 24 30 l21 9 -23 22 c-26 24 -30 25 -46 14z"/>
<path d="M9956 13034 c-4 -11 -15 -14 -41 -10 -20 4 -35 2 -35 -4 0 -6 23 -10
50 -10 54 0 58 -4 34 -38 -17 -25 -11 -43 7 -25 9 9 16 8 30 0 14 -9 21 -9 31
1 10 10 10 14 -1 21 -8 5 -11 16 -7 26 4 12 0 18 -14 22 -11 3 -20 12 -20 19
0 19 -26 18 -34 -2z"/>
<path d="M7539 12958 c0 -2 -3 -16 -5 -31 -5 -27 -3 -28 32 -25 35 3 66 29 52
44 -7 6 -77 18 -79 12z"/>
<path d="M9872 12914 c-11 -8 -12 -13 -3 -18 6 -4 23 2 37 13 24 19 24 20 4
18 -12 -1 -29 -6 -38 -13z"/>
<path d="M4963 12899 c17 -10 17 -12 -9 -25 -15 -8 -35 -13 -43 -11 -10 3 -8
5 6 6 23 1 44 21 21 21 -20 -1 -119 -26 -152 -39 -16 -6 -50 -13 -76 -15 -52
-5 -96 -25 -180 -81 -30 -20 -95 -57 -145 -82 -49 -25 -97 -51 -105 -58 -8 -7
-33 -18 -55 -25 -44 -14 -284 -148 -380 -213 -205 -137 -431 -364 -581 -583
-138 -202 -334 -535 -334 -569 0 -3 -29 -69 -65 -146 -36 -76 -65 -146 -65
-155 0 -8 -29 -88 -64 -177 -35 -89 -82 -214 -104 -277 -47 -133 -95 -251
-121 -296 -21 -34 -60 -145 -86 -239 -9 -33 -23 -83 -31 -111 -8 -28 -14 -67
-14 -87 0 -63 -30 -244 -60 -355 -15 -59 -39 -151 -54 -206 -30 -114 -31 -123
-13 -107 12 9 14 -25 11 -207 -1 -119 -3 -219 -4 -222 -5 -13 -1 -99 5 -133 5
-25 3 -43 -4 -50 -13 -13 -15 -64 -2 -72 5 -3 11 3 13 12 2 10 4 -13 4 -52 1
-58 7 -84 36 -151 20 -44 39 -96 43 -115 4 -18 18 -44 31 -56 34 -31 29 -97
-10 -126 -8 -6 -8 -10 1 -13 13 -6 1 -51 -23 -89 -7 -11 -25 -51 -40 -90 -15
-38 -34 -80 -41 -92 -13 -19 -12 -23 3 -31 28 -16 22 -75 -13 -116 -15 -19
-34 -35 -40 -35 -7 -1 -13 -7 -14 -13 -1 -7 -2 -20 -3 -28 -2 -8 -3 -24 -4
-35 -1 -11 -12 -32 -24 -45 -40 -45 -98 -136 -98 -153 0 -2 11 -3 25 -2 22 3
24 1 13 -18 -16 -31 -104 -144 -152 -196 -38 -41 -146 -117 -191 -135 -49 -20
-98 -23 -135 -9 -34 14 -38 20 -49 69 -7 29 -17 56 -22 59 -14 9 -10 -57 6
-85 8 -14 14 -34 15 -46 0 -27 68 -105 127 -144 l46 -31 111 5 c61 3 137 8
169 11 57 6 58 6 47 -14 -9 -17 -8 -21 5 -21 9 0 13 -4 10 -10 -3 -5 3 -10 14
-10 24 0 30 -16 21 -55 -4 -16 -13 -55 -20 -85 -14 -59 -21 -388 -8 -396 4 -3
15 -22 25 -42 9 -20 29 -57 43 -82 41 -70 45 -120 16 -194 -35 -87 -42 -132
-22 -139 17 -7 29 10 40 57 8 32 40 66 62 66 28 0 33 -34 15 -100 -26 -93 -35
-250 -17 -276 8 -10 20 -19 26 -19 7 0 22 -28 35 -63 13 -35 30 -71 38 -80 20
-23 61 -111 54 -118 -8 -9 -42 4 -67 26 -25 21 -40 26 -40 11 0 -12 65 -50 95
-55 14 -3 25 0 25 5 0 18 36 8 113 -31 45 -23 91 -40 110 -40 51 1 119 -9 132
-20 6 -5 17 -27 23 -49 11 -36 37 -69 47 -60 2 2 -1 24 -6 49 -6 26 -6 68 -1
100 l8 55 34 -3 c19 -1 37 -7 40 -12 3 -6 23 -9 44 -7 34 2 40 -2 57 -33 l19
-35 0 43 c0 36 4 44 27 55 21 9 27 9 31 -1 2 -6 10 -12 18 -12 8 0 27 -13 42
-29 15 -16 38 -31 52 -33 13 -1 30 -13 36 -26 24 -49 109 -91 154 -77 29 9 20
28 -14 30 -17 0 -36 11 -48 25 -19 24 -19 24 4 36 12 7 26 10 31 7 5 -3 11 4
14 16 3 14 16 23 39 27 35 6 44 18 21 27 -14 5 -15 69 0 74 6 2 33 -10 60 -27
28 -18 80 -37 119 -46 92 -19 97 -18 91 8 -4 15 3 32 21 53 57 68 67 80 65 87
-2 3 11 11 28 17 36 12 36 16 -3 226 -6 33 -15 65 -20 71 -4 6 -6 19 -2 28 3
9 3 24 -1 34 -4 9 -9 35 -11 58 -4 47 -13 105 -18 113 -2 3 -11 58 -20 121 -9
63 -21 135 -26 160 -19 96 -40 217 -45 270 -9 87 -34 244 -60 380 -24 125 -55
318 -53 329 2 7 -12 175 -17 216 -4 25 -18 93 -42 201 -3 12 -36 62 -74 110
-112 145 -175 243 -223 349 -25 55 -49 100 -53 100 -21 0 -103 -42 -103 -52 0
-17 -17 -16 -27 1 -4 7 -19 19 -33 26 -36 18 -71 52 -81 78 -17 44 36 124 95
141 17 5 38 12 47 15 12 5 18 1 22 -14 3 -12 10 -19 15 -16 5 3 3 27 -5 58 -8
29 -18 95 -23 147 -6 52 -12 96 -15 99 -2 3 -11 -1 -20 -8 -9 -7 -18 -11 -21
-8 -8 9 16 59 26 53 10 -6 4 102 -7 135 -8 23 -110 -95 -118 -137 -10 -55 -23
-37 -23 32 0 52 4 71 24 100 13 20 24 44 24 54 0 17 29 51 44 51 4 0 4 -9 1
-21 -6 -17 -3 -20 12 -17 28 5 31 64 4 71 -15 4 -21 13 -21 34 0 42 -23 117
-65 218 -48 114 -75 215 -75 283 0 49 1 52 19 42 11 -5 22 -7 25 -2 2 4 4 48
4 97 -1 123 6 149 45 166 35 15 88 100 92 148 3 33 20 73 59 134 30 48 40 55
51 37 3 -5 11 -10 16 -10 5 0 3 10 -5 23 -16 26 -27 110 -16 127 6 10 16 10
44 0 29 -9 34 -15 27 -28 -16 -32 -22 -117 -9 -133 7 -9 42 -26 78 -39 109
-38 118 -52 155 -252 13 -73 33 -159 44 -191 79 -227 274 -404 511 -462 39 -9
67 -21 64 -26 -3 -5 1 -9 8 -10 56 -3 98 -23 98 -47 0 -10 3 -13 8 -7 16 22
62 23 92 2 19 -13 19 -15 3 -28 -11 -9 -14 -10 -9 -1 11 18 -6 14 -33 -9 -20
-16 -22 -22 -11 -29 8 -5 18 -6 22 -4 4 3 8 1 8 -5 0 -5 -9 -13 -20 -16 -11
-3 -20 -10 -20 -15 0 -5 -10 -12 -21 -15 -17 -6 -19 -9 -8 -17 11 -7 11 -11 2
-15 -7 -2 -13 -11 -13 -19 0 -9 5 -12 11 -8 21 13 -23 -45 -45 -59 -18 -12
-21 -22 -18 -51 3 -30 7 -34 18 -25 8 6 11 15 8 20 -3 5 -2 9 3 8 20 -4 31 3
41 26 6 14 16 24 21 23 5 -2 23 12 40 30 18 18 36 30 41 27 6 -4 13 2 17 12 4
10 14 24 22 30 14 11 14 14 1 23 -12 8 -11 10 6 10 12 0 27 7 34 15 6 8 17 13
23 12 7 -1 11 4 9 12 -3 12 1 12 20 -1 13 -8 36 -15 51 -16 25 -2 27 0 16 19
-6 12 -7 19 -2 16 5 -3 26 23 46 57 25 44 56 80 102 116 56 45 67 59 80 104 9
29 31 77 49 107 195 318 222 349 307 354 27 2 49 1 49 -4 0 -4 16 -13 35 -20
27 -9 35 -18 35 -37 0 -13 -4 -24 -10 -24 -5 0 -10 -16 -10 -36 0 -19 -5 -45
-12 -57 -6 -12 -11 -34 -10 -49 1 -16 -2 -28 -8 -28 -5 0 -10 -5 -10 -12 0 -9
3 -9 12 0 18 18 27 15 21 -8 -3 -11 -11 -20 -18 -20 -7 0 -16 -7 -19 -16 -8
-22 -8 -24 8 -24 8 0 18 -5 21 -10 4 -6 1 -9 -6 -8 -6 2 -14 -3 -17 -11 -2 -8
-1 -12 4 -9 5 3 18 -4 28 -15 16 -17 16 -19 3 -14 -23 9 -30 -8 -11 -27 11
-12 12 -16 2 -16 -10 0 -9 -3 2 -10 13 -8 12 -11 -5 -24 -11 -9 -16 -16 -12
-16 4 0 3 -10 -4 -21 -8 -15 -8 -19 0 -15 7 4 11 -1 11 -13 0 -15 -6 -21 -21
-21 -19 0 -19 -1 -5 -16 19 -18 21 -28 4 -18 -7 5 -9 2 -5 -9 3 -9 1 -18 -6
-21 -8 -3 -8 -5 2 -5 11 -1 11 -4 1 -16 -10 -11 -9 -18 4 -30 9 -9 16 -23 16
-31 0 -8 4 -14 8 -14 17 0 21 13 11 31 -16 30 5 22 23 -8 15 -27 14 -58 -2
-48 -4 2 -10 -9 -14 -25 -4 -24 -10 -29 -28 -27 -15 1 -23 -4 -26 -17 -2 -11
0 -16 7 -12 16 10 14 -3 -4 -20 -8 -8 -12 -21 -8 -29 4 -11 -4 -17 -26 -21
-18 -4 -31 -13 -31 -21 0 -10 7 -14 20 -10 26 7 25 0 -2 -23 -13 -11 -31 -17
-40 -14 -10 3 -18 1 -18 -5 0 -6 -7 -11 -16 -11 -8 0 -12 -4 -9 -10 3 -5 3
-10 -2 -10 -4 0 -8 -16 -8 -35 0 -20 4 -35 11 -35 19 0 64 -26 57 -33 -3 -4 1
-7 10 -7 9 0 19 -4 22 -10 4 -6 -1 -7 -11 -3 -14 5 -16 3 -9 -13 5 -10 9 -31
9 -46 1 -14 6 -26 11 -25 6 1 11 -16 12 -38 1 -22 2 -46 2 -53 1 -7 5 -11 9
-8 4 2 13 -4 20 -14 9 -15 7 -23 -15 -44 -20 -20 -22 -26 -9 -26 9 0 21 -9 28
-19 9 -15 16 -17 25 -9 9 7 17 5 28 -6 9 -9 12 -16 6 -16 -6 0 -11 -11 -11
-25 0 -14 -4 -25 -10 -25 -5 0 -6 7 -3 17 4 11 3 14 -5 9 -8 -5 -10 -1 -5 11
3 10 3 15 -2 11 -4 -4 -14 -3 -22 3 -10 9 -13 8 -13 -5 0 -9 -7 -16 -15 -16
-8 0 -15 5 -15 10 0 7 -19 9 -49 7 -27 -2 -55 -1 -61 3 -7 4 -30 3 -52 -2 -31
-7 -46 -5 -64 7 -13 8 -24 11 -24 5 0 -5 5 -10 11 -10 6 0 9 -7 6 -14 -4 -11
-1 -13 11 -10 9 3 5 -1 -9 -10 -14 -8 -34 -14 -44 -12 -20 3 -35 32 -28 56 3
9 2 11 -4 5 -9 -11 -23 -15 -63 -18 -30 -2 -31 -26 -1 -28 9 0 11 -3 4 -5 -6
-3 -22 2 -35 10 -16 10 -28 12 -38 6 -14 -9 -12 -11 19 -14 8 0 16 -7 18 -14
3 -8 -1 -10 -13 -5 -12 4 -15 3 -10 -5 5 -8 2 -10 -8 -6 -9 3 -16 1 -16 -5 0
-6 -6 -9 -12 -7 -7 3 -25 7 -40 10 -20 5 -26 11 -22 24 5 15 4 15 -10 -2 -8
-10 -19 -15 -25 -12 -5 4 -32 8 -59 10 -64 6 -121 21 -191 52 -30 14 -67 26
-81 28 -38 5 -97 44 -104 69 -3 13 4 37 19 64 29 49 31 61 9 42 -15 -12 -16
-11 -10 11 6 24 6 24 -5 3 -7 -13 -20 -25 -30 -28 -10 -3 -21 -15 -24 -26 -4
-10 -12 -19 -19 -19 -7 0 -23 -19 -36 -42 -29 -52 -64 -88 -85 -88 -8 0 -15
-3 -16 -7 0 -5 -2 -18 -3 -31 -2 -12 2 -30 9 -38 10 -15 16 -14 53 5 23 11 54
21 69 21 15 0 36 7 46 15 23 17 54 12 82 -15 12 -11 25 -17 28 -13 4 3 7 1 7
-6 0 -7 5 -9 10 -6 6 4 22 -1 35 -9 25 -16 27 -15 29 14 1 11 11 14 36 12 56
-4 194 -50 220 -72 13 -11 32 -20 42 -20 11 0 16 -4 13 -10 -6 -10 13 -14 48
-11 9 1 17 -3 17 -8 0 -6 5 -11 11 -11 5 0 7 5 4 10 -11 18 4 10 30 -15 14
-14 25 -23 25 -19 0 3 7 1 15 -6 8 -7 15 -20 15 -29 0 -14 -2 -14 -10 -1 -15
24 -12 -8 5 -45 12 -27 14 -28 15 -7 3 32 4 34 22 67 l16 30 7 -27 c4 -15 4
-35 1 -45 -3 -10 -2 -24 3 -31 6 -11 11 -10 25 3 9 9 16 21 16 27 0 6 3 9 6 5
3 -3 -2 -21 -11 -41 -18 -37 -17 -67 1 -73 13 -4 24 28 24 74 0 17 4 34 10 38
11 7 2 -91 -11 -117 -6 -11 -2 -23 12 -40 11 -12 17 -16 13 -9 -5 9 5 6 23 -7
19 -13 34 -18 38 -12 8 14 56 8 62 -7 3 -7 9 -11 13 -8 4 3 13 -2 20 -10 6 -7
17 -12 25 -9 7 3 16 1 20 -5 3 -6 -1 -11 -9 -11 -9 0 -16 -4 -16 -10 0 -9 13
-14 31 -12 3 1 6 -4 6 -11 0 -7 -13 -12 -28 -13 -16 -1 -26 3 -23 7 10 17 -9
9 -22 -8 -20 -28 3 -49 28 -26 16 14 21 15 28 3 5 -8 6 -18 3 -24 -3 -5 -1 -6
5 -2 8 4 12 0 12 -11 0 -15 2 -15 9 -3 6 8 7 18 5 22 -3 4 0 8 6 8 8 0 9 -10
5 -30 -4 -20 -3 -30 5 -30 6 0 8 -5 5 -10 -4 -7 -12 -7 -25 0 -13 7 -21 7 -26
-2 -4 -7 -3 -8 4 -4 17 10 10 -31 -7 -47 -11 -10 -13 -8 -8 11 4 19 3 21 -9
11 -11 -9 -14 -8 -14 5 0 9 5 16 10 16 6 0 10 5 10 10 0 6 -4 10 -9 10 -12 0
-22 -31 -23 -70 -1 -16 -6 -30 -12 -30 -6 0 -4 -5 4 -10 13 -9 13 -11 0 -20
-13 -8 -13 -11 -1 -22 8 -7 11 -8 8 -2 -4 7 0 14 8 17 12 5 12 2 3 -19 -9 -19
-9 -30 0 -45 11 -17 9 -19 -20 -18 -65 2 -81 -9 -54 -37 16 -16 19 -16 14 -2
-4 9 0 22 9 29 12 11 17 10 24 -3 5 -10 16 -24 25 -33 8 -8 11 -15 5 -15 -5 0
-15 8 -20 18 -10 15 -10 16 -11 0 0 -9 4 -28 10 -43 5 -14 6 -24 2 -21 -4 2
-14 -4 -21 -16 -7 -11 -8 -18 -4 -15 13 8 10 -66 -2 -75 -7 -5 -6 -8 0 -8 15
0 16 -43 2 -52 -9 -6 -9 -8 0 -8 7 0 10 -6 7 -14 -3 -8 -1 -17 5 -21 6 -3 11
-1 11 5 0 6 5 8 12 4 8 -5 9 -2 5 9 -3 9 -2 19 4 23 6 3 8 11 6 18 -3 7 4 13
15 13 19 2 19 1 3 -23 -8 -13 -12 -24 -8 -23 16 2 54 -14 46 -20 -4 -3 -13
-15 -20 -27 -9 -16 -8 -21 3 -21 7 0 11 4 8 9 -8 12 10 10 23 -3 8 -8 7 -16
-5 -30 -20 -23 -36 -25 -28 -4 3 8 0 14 -7 12 -7 -1 -12 8 -11 20 0 18 -2 20
-13 12 -7 -6 -13 -18 -13 -25 0 -8 -5 -14 -11 -14 -6 0 -8 7 -4 18 5 13 3 14
-6 5 -6 -6 -9 -19 -6 -28 5 -13 10 -13 26 -3 17 10 23 8 40 -13 11 -13 20 -20
21 -15 0 14 30 -15 30 -30 0 -19 -97 -52 -202 -69 -50 -8 -94 -17 -97 -21 -3
-3 2 -11 11 -18 10 -7 15 -16 11 -19 -3 -4 3 -7 15 -7 12 0 22 -5 22 -12 0 -6
3 -8 7 -5 3 4 12 2 20 -4 11 -10 11 -15 1 -27 -7 -9 -8 -13 -3 -10 6 3 16 0
23 -8 7 -8 8 -14 2 -14 -5 0 -10 -4 -10 -9 0 -5 11 -8 24 -7 13 0 22 4 19 9
-8 13 9 7 34 -13 30 -24 45 -26 37 -5 -4 10 0 13 15 10 12 -2 21 1 21 8 0 7 5
4 11 -6 6 -10 15 -14 22 -10 7 4 17 8 22 8 6 1 18 5 29 10 11 5 21 4 25 -4 6
-9 11 -8 21 3 7 9 16 13 21 10 5 -3 9 1 9 8 0 7 10 -2 23 -19 22 -33 50 -42
63 -21 5 7 2 9 -8 6 -8 -4 -15 -1 -15 6 0 10 13 8 51 -5 28 -11 51 -19 51 -19
1 0 1 -10 2 -21 1 -12 6 -26 12 -32 7 -7 8 -2 4 13 -5 18 -2 21 13 18 11 -2
18 -11 18 -21 -1 -9 2 -17 6 -17 13 0 2 -48 -18 -78 -10 -16 -12 -23 -4 -18
10 6 12 3 10 -10 -2 -11 -12 -24 -23 -30 -11 -6 -19 -16 -18 -22 2 -7 -15 -41
-37 -77 -22 -36 -40 -69 -40 -74 0 -8 -22 -60 -41 -93 -16 -31 -49 -123 -49
-138 0 -8 12 3 26 25 42 62 43 62 38 -6 -4 -60 -3 -63 12 -44 16 19 16 18 10
-20 -3 -22 -8 -52 -12 -67 -4 -18 -2 -28 5 -28 6 0 11 7 11 15 0 32 42 125 57
125 9 0 13 -6 10 -14 -3 -8 1 -22 9 -33 9 -10 13 -12 9 -5 -3 6 -2 12 3 12 15
0 23 -47 16 -88 -7 -35 -6 -36 10 -19 19 19 26 20 50 11 12 -5 16 -21 16 -65
l0 -58 -37 -7 c-101 -17 -105 -22 -18 -19 97 4 174 23 141 35 -15 5 -10 13 34
44 64 46 76 51 83 33 8 -21 -21 -57 -46 -57 -25 0 -41 -10 -44 -27 -4 -16 58
-33 74 -21 26 20 55 3 82 -49 16 -29 33 -59 39 -66 7 -8 9 -17 5 -20 -3 -4 2
-7 11 -7 22 0 15 -24 -9 -28 -10 -3 -15 0 -11 7 11 17 -8 13 -30 -7 -10 -10
-36 -28 -56 -41 -21 -12 -38 -29 -38 -37 0 -8 -21 -24 -47 -36 -52 -23 -176
-58 -204 -58 -10 0 -20 -4 -24 -9 -3 -6 13 -8 40 -5 49 5 54 0 28 -29 -17 -18
-17 -18 9 -6 15 6 25 17 21 22 -4 6 0 8 9 4 9 -3 32 3 52 14 35 19 47 14 24
-9 -19 -19 5 -13 32 8 27 21 45 26 35 10 -3 -5 1 -10 9 -10 8 0 17 4 20 9 9
14 56 20 56 7 0 -7 -22 -35 -48 -64 -27 -29 -46 -52 -44 -52 2 0 22 15 44 34
39 33 99 68 106 61 2 -2 -4 -18 -14 -37 -17 -32 -17 -33 2 -18 10 8 16 10 11
5 -4 -4 -1 -15 6 -24 21 -25 41 -103 28 -111 -13 -7 50 -40 78 -40 21 0 46
-25 55 -56 8 -27 43 -57 84 -74 29 -11 37 -10 75 10 42 22 87 81 87 114 0 21
56 46 116 52 28 2 65 9 82 13 34 10 47 3 76 -39 18 -25 18 -25 11 20 -7 40 -6
43 9 31 13 -11 16 -11 16 1 0 10 11 13 43 10 31 -2 38 -1 27 7 -27 19 8 12 37
-7 15 -9 24 -11 20 -4 -6 8 -2 12 12 12 23 0 28 15 9 23 -7 3 -3 6 10 6 15 1
44 -18 83 -56 42 -39 59 -51 59 -38 0 11 5 15 15 11 8 -3 14 -2 14 2 -3 19 2
25 11 12 7 -12 12 -12 22 -2 17 17 26 15 33 -8 3 -11 13 -20 21 -20 12 0 12 4
-1 31 -9 17 -14 37 -11 44 3 8 -3 19 -12 27 -11 9 -14 10 -8 1 4 -7 2 -13 -3
-13 -19 0 -58 73 -52 96 3 11 25 42 48 68 38 44 42 45 45 24 4 -22 5 -22 13
-3 5 11 14 24 22 28 7 4 16 26 19 49 7 38 8 40 21 22 20 -26 10 -121 -18 -177
-16 -31 -18 -38 -6 -29 31 26 58 120 52 179 -4 40 -3 53 7 51 9 -2 13 10 13
40 0 37 5 48 33 73 17 16 32 34 32 41 0 7 8 25 18 39 52 79 72 107 95 133 15
17 23 36 20 47 -7 25 53 124 84 138 12 6 23 15 23 21 0 5 8 10 17 10 13 0 14
-3 5 -12 -26 -26 -10 -27 35 -3 94 50 248 29 455 -61 43 -19 82 -34 88 -34 5
0 36 -8 67 -19 32 -10 96 -26 143 -36 47 -9 93 -21 102 -26 10 -5 26 -9 37 -9
10 0 40 -8 67 -19 70 -27 200 -54 224 -46 16 5 18 10 10 25 -9 16 -7 18 12 13
13 -2 31 -5 41 -5 13 1 17 -6 15 -26 -3 -30 28 -52 78 -52 41 0 53 33 21 55
-12 8 -17 15 -13 15 5 0 -3 10 -17 23 -15 12 -27 31 -27 42 0 11 -5 27 -10 35
-7 12 -12 7 -25 -23 -16 -40 -35 -49 -35 -17 0 10 -6 23 -13 27 -21 12 -51 63
-43 71 4 4 12 -1 18 -11 7 -14 13 -16 24 -6 7 6 11 16 8 21 -4 6 3 5 14 -1 12
-6 24 -16 27 -21 10 -17 25 -11 25 9 0 25 -24 43 -52 40 -13 -2 -29 0 -35 4
-7 5 -22 10 -33 12 -22 4 -62 41 -78 72 -10 17 -7 22 14 32 25 11 25 11 7 42
-23 40 -39 46 -63 24 -22 -20 -48 -11 -30 10 7 8 8 20 4 26 -4 8 -3 9 4 5 27
-17 4 57 -24 79 -10 8 -10 20 2 65 8 30 15 66 16 80 1 14 8 33 16 42 8 10 15
31 14 48 0 17 6 33 15 38 13 8 13 13 3 33 -13 23 -13 23 -21 2 -10 -27 -29
-39 -29 -19 0 15 -52 72 -72 78 -9 3 -15 29 -21 91 -1 9 -7 17 -14 17 -7 0
-10 -6 -7 -14 8 -20 -14 -30 -32 -15 -9 7 -12 19 -8 33 4 12 7 29 6 38 0 10 3
20 9 23 5 4 9 2 9 -3 0 -16 44 -30 68 -21 20 8 27 20 23 43 -1 5 5 3 14 -4 20
-17 32 -5 15 15 -7 9 -10 18 -7 22 8 8 -11 43 -23 43 -6 0 -10 -7 -10 -16 0
-9 -5 -12 -12 -8 -6 4 -8 3 -5 -4 4 -5 3 -21 -2 -34 l-9 -23 -5 25 c-12 52
-17 140 -9 140 5 0 14 11 20 25 6 14 19 25 27 25 9 0 14 -4 11 -8 -2 -4 -1
-14 3 -21 7 -11 14 -10 35 4 29 19 30 23 16 60 -8 20 -14 24 -33 20 -19 -5
-23 -2 -25 19 -1 14 6 31 16 38 31 24 40 50 29 85 -6 18 -14 33 -19 33 -4 0
-8 9 -8 20 0 13 -7 20 -20 20 -11 0 -20 5 -20 10 0 6 -4 10 -10 10 -5 0 -7 -7
-4 -15 4 -8 1 -15 -5 -15 -18 0 -13 -25 9 -45 17 -16 20 -26 14 -64 -3 -25
-12 -56 -20 -68 -16 -26 -18 -59 -4 -68 6 -3 10 -11 10 -16 0 -6 -4 -8 -9 -5
-10 7 -53 -29 -45 -37 9 -9 -43 -20 -61 -13 -8 3 -14 16 -13 30 2 19 6 23 18
16 13 -7 16 -3 18 21 1 16 17 49 34 74 30 42 31 47 21 89 -6 27 -6 47 -1 48 5
2 10 18 10 36 1 17 5 32 11 32 5 0 6 7 3 16 -3 8 1 31 9 51 14 33 14 39 -6 79
-14 27 -30 44 -43 46 -24 3 -36 38 -13 38 28 0 40 26 23 52 -18 27 -7 58 12
35 7 -8 13 -26 14 -41 1 -15 10 -28 20 -32 11 -3 18 -15 18 -30 0 -13 4 -24 8
-24 9 0 12 -16 14 -61 1 -15 7 -26 15 -26 11 0 13 9 8 34 -6 36 -4 38 25 23
15 -8 19 -5 22 15 3 13 2 29 -3 36 -10 17 -39 3 -39 -18 0 -14 -2 -15 -9 -4
-6 9 -5 23 1 37 13 27 -4 56 -27 47 -9 -3 -16 5 -21 24 -4 15 -15 38 -26 49
-13 15 -18 33 -17 63 3 44 17 52 40 24 13 -14 15 -13 19 13 5 25 10 29 34 26
28 -3 29 3 3 36 -17 22 -14 83 5 93 26 14 77 -16 90 -52 5 -16 16 -29 23 -29
18 0 28 17 15 25 -5 3 -10 15 -10 25 0 23 -58 60 -93 60 -19 0 -31 8 -42 30
-8 16 -35 46 -60 67 -51 42 -60 73 -20 65 28 -5 30 0 13 28 -16 25 -5 35 21
20 12 -6 26 -8 31 -5 17 10 11 33 -9 40 -20 6 -38 41 -27 53 4 3 -8 11 -26 17
-28 9 -33 15 -31 39 1 16 -2 37 -7 47 -8 14 -6 19 10 24 12 4 27 2 35 -5 9 -7
15 -8 20 0 3 5 1 10 -4 10 -14 0 -14 36 0 62 6 11 7 18 1 14 -5 -3 -17 19 -27
49 -9 30 -21 53 -25 50 -5 -3 -12 0 -15 6 -5 7 4 9 30 5 50 -8 56 -2 35 40
-24 46 -15 77 11 43 16 -20 20 -22 28 -9 5 8 7 18 4 24 -3 5 -7 19 -8 31 -2
18 1 21 26 17 36 -5 40 20 7 55 -16 17 -19 26 -10 35 7 7 8 17 2 29 -7 12 -7
20 0 24 6 3 8 16 6 28 -2 12 -7 40 -11 62 -4 22 -12 46 -17 52 -6 7 -8 23 -5
35 8 29 -6 53 -26 45 -21 -8 -11 -105 14 -133 27 -29 22 -168 -7 -189 -16 -12
-21 -12 -34 1 -11 10 -11 17 -3 25 8 8 9 18 3 29 -6 11 -6 30 0 49 5 17 5 29
0 26 -5 -3 -12 5 -16 17 -9 29 -92 110 -105 103 -5 -4 -9 -1 -9 6 0 7 -12 25
-26 40 -15 16 -21 29 -16 33 6 3 13 -2 16 -12 9 -27 55 -50 65 -33 5 7 12 12
17 12 5 -1 9 4 9 11 0 6 -16 13 -35 16 -40 4 -44 7 -35 21 3 6 21 11 40 11 19
0 37 5 40 10 5 8 11 7 21 -1 8 -6 17 -9 21 -5 3 3 2 6 -3 6 -11 0 -84 66 -84
76 0 3 9 2 21 -1 14 -5 25 -1 35 12 9 10 13 13 10 7 -3 -7 0 -14 7 -17 17 -7
18 20 1 52 -7 13 -11 29 -7 33 3 5 -3 15 -13 22 -17 13 -17 15 -1 30 9 10 17
26 17 37 0 17 -4 19 -22 13 -30 -10 -68 -7 -84 7 -23 19 -16 28 16 23 23 -4
30 -1 30 10 0 9 -4 16 -9 16 -5 0 -13 9 -16 20 -4 11 -19 32 -33 46 -15 14
-22 24 -17 23 6 -1 20 -1 32 0 20 1 21 4 11 26 -6 13 -15 22 -19 19 -5 -3 -9
3 -9 12 0 10 -8 26 -17 36 -20 22 -26 48 -11 48 5 0 7 16 4 38 -3 20 -5 45 -6
55 0 9 -11 27 -25 39 -28 25 -31 36 -11 44 8 3 33 -13 60 -38 40 -39 49 -43
84 -40 38 4 39 5 33 30 -5 17 -15 27 -27 28 -44 1 -104 17 -115 30 -6 8 -28
18 -48 24 -40 11 -95 56 -86 71 4 5 11 7 16 4 5 -4 9 -1 9 4 0 6 12 11 26 11
14 0 23 -4 20 -9 -7 -11 21 -48 30 -39 4 4 1 15 -6 24 -11 12 -11 17 -1 23 17
11 -13 35 -34 28 -17 -7 -48 20 -42 37 2 6 21 10 46 8 22 -2 41 0 41 3 0 16
-47 43 -66 39 -23 -6 -54 18 -54 43 0 11 -6 14 -25 9 -32 -8 -90 40 -79 67 6
16 8 17 31 2 26 -18 74 -17 80 1 2 7 -4 19 -13 29 -10 10 -18 31 -18 48 -1 27
-6 33 -38 42 -20 5 -36 15 -35 20 1 6 6 9 10 7 4 -1 3 6 -2 17 -6 10 -7 22 -3
26 4 3 3 6 -3 4 -24 -6 -93 16 -120 39 -16 14 -29 27 -27 28 10 16 -2 13 -15
-3 -10 -11 -28 -25 -40 -32 -19 -10 -23 -9 -23 4 0 8 5 15 11 15 28 0 65 78
39 81 -5 1 -14 3 -20 4 -5 1 -14 3 -20 4 -20 2 -10 31 11 31 38 0 14 25 -25
26 -21 0 -41 7 -46 14 -4 7 -13 11 -20 8 -14 -4 8 -31 32 -41 10 -4 9 -8 -2
-16 -21 -15 -81 -4 -102 19 -11 11 -24 20 -31 20 -32 1 32 30 65 30 25 0 41 5
44 15 4 8 10 12 15 9 5 -3 9 4 9 16 0 16 5 20 22 18 29 -4 46 48 18 57 -20 6
-50 -3 -50 -15 0 -16 -32 -41 -46 -36 -7 3 -18 -2 -24 -10 -7 -8 -20 -14 -28
-14 -15 0 -72 47 -72 60 0 4 24 3 53 -1 28 -3 55 -5 60 -2 15 9 6 24 -18 33
-21 8 -24 14 -19 35 5 20 2 25 -13 25 -10 0 -24 -5 -30 -11 -7 -7 -17 -8 -25
-3 -7 5 -21 7 -30 6 -30 -5 -20 24 21 61 38 34 107 57 131 42 6 -4 26 5 44 19
30 23 34 23 49 9 13 -13 19 -14 31 -3 31 25 18 38 -35 38 -32 0 -55 5 -60 13
-10 17 -2 29 16 22 8 -3 15 -2 15 1 0 4 -12 11 -26 16 -22 9 -24 13 -14 25 7
8 18 15 26 15 15 0 34 30 34 54 0 24 -26 19 -44 -9 -10 -15 -26 -25 -40 -25
-13 0 -37 -3 -54 -6 -27 -5 -30 -9 -22 -24 15 -27 -13 -50 -61 -50 -21 0 -39
-5 -39 -11 0 -6 -7 -17 -15 -25 -8 -8 -12 -21 -9 -28 6 -16 -29 -31 -46 -21
-6 3 -13 -1 -17 -11 -5 -14 -8 -13 -19 7 -12 23 -10 44 4 35 4 -2 12 2 19 9
18 20 -24 50 -68 49 -25 -1 -40 5 -48 18 -13 21 -7 38 15 38 8 0 14 8 14 18 0
21 -37 55 -50 47 -6 -3 -7 2 -4 12 5 17 5 17 -6 0 -11 -18 -13 -18 -36 4 -24
23 -32 49 -14 49 5 0 16 14 25 30 12 22 13 35 5 50 -10 18 -11 18 -37 -6 -14
-13 -30 -24 -34 -24 -5 0 -19 19 -31 43 -32 59 -40 79 -28 72 16 -10 12 11 -5
25 -8 7 -12 17 -9 22 3 5 -10 25 -29 43 -20 19 -58 70 -86 112 -167 257 -377
499 -536 619 -27 20 -52 40 -55 44 -3 3 -65 43 -139 89 -118 73 -236 134 -421
218 -61 28 -147 38 -297 36 -51 -1 -93 2 -93 7 0 11 54 50 69 50 6 0 11 5 11
10 0 6 -2 10 -5 10 -14 0 -74 -30 -110 -54 -26 -18 -41 -23 -44 -15 -4 13 -25
40 -56 73 -11 11 -22 36 -23 55 -3 40 -9 51 -25 50 -9 0 -9 -2 1 -6 6 -2 12
-11 12 -20 0 -17 0 -17 -68 25 -29 19 -49 38 -45 44 3 6 1 8 -5 4 -5 -3 -12
-1 -14 4 -2 6 -10 12 -18 14 -29 5 -60 17 -60 24 0 4 -17 8 -38 9 -30 2 -34 1
-19 -8z m-73 -43 c0 -2 -7 -7 -16 -10 -8 -3 -12 -2 -9 4 6 10 25 14 25 6z
m126 -1031 c-17 -18 -52 -20 -62 -3 -5 8 -2 9 9 5 10 -3 17 -2 17 3 0 6 12 10
26 10 23 0 24 -2 10 -15z m38 3 c-5 -8 -2 -9 9 -5 9 3 19 2 22 -3 3 -4 -1 -11
-7 -13 -7 -3 -1 -6 14 -6 15 -1 30 4 33 10 5 7 15 5 31 -5 13 -9 30 -16 38
-16 8 0 23 -11 33 -23 10 -13 30 -26 43 -29 14 -3 34 -9 45 -14 18 -7 18 -6 6
9 -7 9 -9 17 -3 17 5 0 15 -14 22 -30 10 -24 10 -33 0 -45 -7 -9 -8 -15 -2
-15 5 0 12 7 16 15 3 8 12 12 20 9 8 -3 17 0 21 6 5 8 15 4 31 -11 13 -12 27
-19 31 -16 3 4 0 7 -8 7 -12 0 -12 2 1 10 11 7 9 11 -14 20 -34 12 -28 22 14
27 20 2 33 -2 36 -12 4 -8 16 -15 28 -16 21 0 21 0 -1 -11 -13 -6 -23 -14 -23
-18 0 -10 33 -9 48 3 8 6 12 6 12 -3 0 -7 8 -10 20 -7 24 6 25 -1 5 -24 -14
-15 -14 -18 -1 -32 20 -19 10 -28 -20 -17 -35 14 -30 -5 6 -20 33 -14 46 -13
42 3 -2 6 7 0 21 -15 13 -14 34 -29 45 -33 12 -3 22 -10 22 -15 0 -4 11 -10
24 -12 19 -4 24 -1 23 12 -1 10 -7 16 -13 13 -7 -3 -21 0 -31 6 -16 9 -15 11
7 12 14 1 31 1 39 0 7 -2 10 2 6 8 -3 7 3 11 15 11 19 0 21 -4 15 -31 -6 -28
-5 -30 8 -18 8 8 13 17 11 20 -2 4 7 7 20 7 26 0 26 -24 0 -30 -12 -2 -12 -7
2 -27 15 -22 18 -22 24 -7 5 16 7 16 29 -3 21 -18 48 -20 37 -3 -2 4 11 8 30
9 19 2 34 -2 34 -7 0 -6 -8 -10 -18 -10 -21 0 -65 -34 -56 -43 3 -3 13 -3 22
0 14 4 15 3 2 -5 -8 -6 -18 -8 -22 -6 -16 10 -29 -7 -17 -22 6 -7 15 -11 20
-8 5 3 9 0 9 -5 0 -6 8 -11 18 -11 13 0 14 2 4 9 -19 12 -19 15 1 35 9 10 15
21 13 25 -3 4 6 8 20 9 13 1 24 -3 24 -8 0 -6 -6 -10 -12 -11 -7 0 2 -5 20
-10 28 -8 32 -12 22 -24 -14 -17 -45 -21 -35 -5 3 6 1 10 -5 10 -7 0 -10 -7
-6 -15 3 -8 -1 -21 -9 -29 -21 -20 -19 -22 18 -22 24 1 32 5 31 19 -2 19 4 21
26 7 10 -6 11 -10 3 -10 -7 0 -13 -7 -13 -15 0 -8 -4 -15 -8 -15 -5 0 -9 -7
-9 -15 0 -8 4 -12 9 -9 4 3 8 0 8 -7 0 -7 3 -9 7 -5 4 4 8 15 8 23 0 9 6 17
13 19 8 2 8 0 1 -3 -8 -4 -8 -8 2 -13 10 -7 10 -12 -2 -26 -8 -10 -9 -15 -2
-11 15 10 28 -12 15 -25 -12 -12 -5 -38 10 -38 5 0 7 4 3 9 -3 5 0 13 7 18 27
16 36 11 35 -23 -1 -19 -5 -34 -9 -34 -4 0 -8 -5 -8 -11 0 -5 6 -7 13 -3 10 6
10 4 0 -7 -17 -18 -16 -36 3 -43 8 -3 12 -2 9 4 -9 15 4 12 21 -4 17 -18 18
-30 2 -20 -9 5 -9 2 1 -9 14 -18 26 -23 17 -8 -4 5 -1 11 5 13 8 3 6 9 -4 20
-15 15 -15 17 0 23 10 3 14 3 10 -1 -4 -4 0 -16 10 -26 9 -11 11 -18 5 -18 -7
0 -12 -10 -12 -22 0 -19 2 -20 10 -8 6 10 10 11 10 3 0 -7 5 -13 11 -13 5 0 7
6 3 13 -5 9 -4 9 6 0 16 -15 3 -35 -19 -28 -12 4 -17 -2 -19 -22 -1 -14 -6
-31 -11 -37 -11 -14 -10 -46 1 -46 4 0 8 -4 8 -10 0 -5 -3 -9 -7 -9 -22 4 -34
-2 -30 -13 2 -7 -3 -22 -12 -33 -9 -11 -12 -17 -7 -13 8 7 36 -14 36 -26 0 -3
-9 -6 -21 -6 -19 0 -19 -1 -5 -16 9 -8 16 -18 16 -20 0 -8 -38 15 -42 25 -1 4
-19 -7 -38 -26 -19 -20 -30 -33 -23 -29 6 3 14 -2 16 -11 3 -12 5 -8 6 9 1 35
13 41 46 24 27 -14 27 -14 6 -28 -20 -12 -30 -39 -13 -37 17 3 32 -2 32 -10 0
-10 -39 -27 -52 -23 -5 1 -8 -5 -8 -13 0 -19 17 -19 37 0 8 9 18 13 22 10 3
-4 -2 -12 -12 -19 -24 -18 -21 -35 8 -46 25 -10 31 -21 18 -34 -4 -3 -8 -14
-9 -22 -5 -31 -14 -45 -26 -39 -7 4 -6 1 3 -7 12 -10 14 -17 6 -30 -10 -15
-12 -15 -29 4 -14 16 -18 18 -18 6 0 -9 7 -19 16 -22 10 -4 14 -12 10 -23 -4
-10 -4 -14 0 -11 6 7 34 -15 34 -27 0 -4 -13 -4 -30 0 -19 4 -30 3 -30 -4 0
-6 4 -11 8 -11 4 0 8 -9 9 -20 1 -11 -2 -20 -8 -20 -5 0 -9 -4 -9 -9 0 -14 42
-21 63 -10 15 9 18 8 15 -3 -3 -7 -22 -15 -43 -18 -22 -3 -41 -11 -43 -20 -5
-13 -3 -13 11 -1 15 12 17 11 17 -13 0 -14 -4 -26 -10 -26 -5 0 -10 -6 -10
-14 0 -8 9 -13 23 -12 32 3 50 -13 36 -30 -6 -8 -19 -14 -28 -13 -10 0 -12 2
-3 6 6 2 9 9 6 15 -4 6 -10 5 -16 -3 -7 -10 -8 -9 -3 6 5 16 4 18 -6 8 -10
-10 -6 -20 21 -48 37 -38 31 -49 -7 -13 -17 15 -23 17 -23 7 -1 -10 -5 -8 -15
5 -16 22 -20 40 -7 32 5 -3 9 1 9 8 0 10 -6 10 -24 2 -25 -12 -30 -31 -10 -39
6 -3 -3 -3 -20 0 -22 4 -33 2 -33 -6 0 -7 -6 -18 -13 -26 -12 -11 -16 -10 -28
6 -7 10 -20 19 -27 19 -11 0 -12 -3 -3 -14 9 -10 8 -15 -4 -20 -8 -3 -15 -2
-15 2 0 4 -11 8 -25 8 -16 1 -25 -3 -25 -12 0 -12 -5 -12 -30 1 -16 9 -30 12
-30 7 0 -5 -19 -9 -42 -9 -31 1 -42 -3 -40 -13 2 -10 0 -11 -10 -3 -22 17
-105 12 -93 -7 3 -5 1 -11 -5 -15 -5 -3 -10 -1 -10 5 0 6 -4 9 -9 5 -5 -3 -12
-1 -16 5 -4 6 -11 8 -16 5 -5 -4 -9 -1 -9 5 0 6 -5 8 -10 5 -6 -4 -8 -11 -5
-16 4 -5 1 -10 -4 -10 -6 -1 -17 -2 -23 -3 -7 -1 -16 3 -20 9 -4 5 -8 -1 -8
-15 0 -19 -3 -22 -9 -11 -14 22 -40 -4 -34 -32 4 -18 3 -19 -6 -7 -8 12 -11
12 -11 1 0 -11 -3 -11 -15 -1 -9 7 -18 10 -22 6 -3 -3 -1 -6 5 -6 16 0 11 -20
-10 -43 -10 -11 -22 -16 -29 -12 -8 5 -10 4 -5 -3 4 -7 2 -12 -4 -12 -6 0 -9
-4 -6 -9 3 -5 -1 -14 -9 -21 -12 -10 -15 -10 -17 1 0 8 -4 -6 -7 -31 -4 -33
-12 -47 -29 -56 -13 -6 -24 -15 -25 -20 -2 -11 -226 -5 -248 6 -8 5 -22 4 -30
-1 -38 -24 -105 11 -114 60 -2 14 -8 27 -13 30 -16 10 -32 49 -32 75 0 13 -4
26 -9 28 -5 2 -11 10 -13 18 -2 8 -12 24 -23 34 -20 19 -20 19 3 13 22 -5 31
7 12 18 -15 9 -12 22 5 22 8 0 12 -4 9 -9 -3 -4 0 -8 6 -8 6 0 9 -4 6 -8 -3
-5 2 -9 10 -9 12 0 14 9 9 46 -5 34 -4 42 4 31 6 -8 11 -25 11 -36 0 -20 30
-57 30 -38 0 5 5 2 10 -6 8 -12 10 -11 10 7 0 16 -4 21 -15 17 -11 -5 -13 -2
-8 12 4 12 3 15 -5 10 -8 -5 -12 0 -12 14 0 25 -41 90 -57 90 -6 0 -18 8 -25
18 -7 11 -31 22 -53 26 -22 4 -54 12 -72 18 -29 11 -30 13 -15 25 15 11 14 13
-13 11 -16 -1 -40 4 -52 10 -16 9 -22 9 -25 1 -5 -14 -42 -4 -64 18 -9 9 -51
21 -100 28 -83 13 -123 10 -135 -7 -5 -8 -61 -12 -129 -9 -19 1 -21 4 -11 10
8 5 19 7 26 5 6 -3 22 0 36 5 13 5 17 10 9 11 -12 0 -11 4 4 15 19 14 18 15
-15 15 -19 0 -40 -4 -48 -9 -9 -6 -25 -5 -40 0 -24 8 -24 8 -8 -5 23 -18 7
-29 -28 -20 -31 8 -31 11 -2 35 l22 19 -22 -3 c-12 -2 -26 -6 -29 -10 -4 -4
-20 -7 -35 -7 -15 0 -31 -4 -34 -10 -3 -5 -12 -10 -18 -10 -7 0 -6 4 3 10 11
7 1 10 -35 9 l-50 -1 40 -19 c22 -10 48 -19 57 -19 9 0 20 -4 23 -10 4 -6 -7
-10 -25 -10 -17 0 -29 -4 -25 -9 3 -6 22 -9 43 -8 20 0 53 -7 72 -17 19 -10
53 -20 75 -23 68 -7 139 -23 164 -37 l24 -13 -32 -11 c-32 -11 -40 -27 -18
-35 6 -2 -36 -5 -96 -5 -185 -3 -294 -26 -486 -105 l-126 -52 -122 1 c-101 1
-127 5 -155 21 -27 16 -32 24 -30 49 5 44 33 123 65 179 16 27 30 56 32 65 2
9 14 43 28 76 43 106 42 101 45 131 1 6 10 14 20 17 18 6 47 84 45 118 -1 10
2 20 8 23 5 4 9 15 9 26 0 14 -4 18 -12 13 -9 -5 -8 -2 1 10 9 10 17 13 20 7
4 -6 12 -1 19 10 12 19 11 20 -7 14 -27 -8 -27 6 -1 23 11 7 20 18 20 25 0 8
11 20 25 27 14 7 25 18 25 23 0 5 14 22 31 38 22 20 26 29 15 29 -13 0 -13 5
5 36 l20 37 -20 -6 c-12 -3 -21 -1 -21 4 0 5 3 9 8 9 13 0 92 81 87 90 -3 4 8
20 25 33 37 32 38 39 3 27 l-28 -10 22 17 c12 10 33 26 47 36 14 10 25 22 23
26 -2 9 49 61 60 61 13 0 63 61 58 70 -3 6 -1 10 4 10 6 0 11 -6 11 -12 1 -8
6 -6 14 4 7 10 17 14 21 10 5 -4 5 -2 2 4 -11 19 20 50 75 76 30 14 60 33 68
43 10 12 5 11 -23 -5 -20 -12 -37 -18 -37 -12 0 9 66 45 105 57 16 5 17 8 5
15 -16 10 -8 15 35 23 11 2 19 7 18 13 0 5 22 10 50 11 27 1 55 7 61 13 8 8 6
9 -5 5 -10 -4 -20 -2 -23 3 -3 6 6 13 22 17 15 3 34 14 42 25 8 10 26 21 40
25 l25 8 -25 -21 c-30 -25 -21 -28 20 -7 17 9 30 22 30 29 0 16 27 29 35 17 3
-5 -2 -11 -10 -15 -21 -8 -19 -22 4 -22 10 0 17 5 15 11 -6 13 25 42 46 43 23
2 65 9 65 11 0 1 23 4 50 6 69 6 98 10 115 17 29 12 70 15 70 6 0 -5 8 -8 18
-7 9 2 26 0 37 -4 12 -4 40 -9 63 -11 24 -2 50 -10 59 -18 14 -11 16 -11 8 1
-6 11 -4 13 11 7 10 -4 15 -4 11 0 -4 4 3 18 15 31 23 25 34 30 22 11z m-118
-11 c4 -4 -2 -7 -14 -7 -12 0 -22 4 -22 9 0 10 26 9 36 -2z m469 -27 c-3 -5
-11 -10 -16 -10 -6 0 -7 5 -4 10 3 6 11 10 16 10 6 0 7 -4 4 -10z m15 -45
c-12 -15 -30 -12 -30 6 0 5 10 9 21 9 18 0 19 -2 9 -15z m200 -91 c-8 -8 -9
-14 -4 -13 19 3 58 -3 47 -8 -26 -10 -13 -24 16 -18 24 5 32 2 42 -17 6 -13 8
-20 4 -16 -4 4 -16 3 -26 -3 -13 -7 -19 -6 -19 1 0 8 -11 9 -30 5 -29 -6 -43
8 -17 18 6 3 -3 6 -20 6 -38 1 -42 16 -11 42 26 23 35 25 18 3z m140 -38 c-7
-7 -14 -6 -21 1 -9 9 -7 12 9 10 14 -1 18 -5 12 -11z m-2030 -160 c0 -7 -119
-86 -130 -86 -6 0 -9 -3 -7 -7 3 -5 -11 -9 -30 -11 -21 -1 -32 2 -28 8 3 5 14
10 23 10 10 0 49 20 87 44 66 42 85 51 85 42z m-352 -461 c-55 -93 -72 -105
-38 -28 17 38 74 113 87 113 1 0 -21 -38 -49 -85z m122 72 c0 -2 -10 -12 -22
-23 l-23 -19 19 23 c18 21 26 27 26 19z m-60 -65 c0 -5 -9 -20 -21 -33 -12
-13 -30 -42 -40 -64 l-20 -40 26 30 c13 17 25 27 25 23 0 -4 -17 -26 -37 -50
-21 -24 -46 -55 -56 -68 -17 -24 -17 -24 -2 13 31 76 44 103 69 136 14 19 23
39 19 44 -3 6 -1 7 5 3 6 -3 13 -2 17 4 8 12 15 13 15 2z m2799 -14 c11 -18
11 -18 -14 -2 -29 19 -30 21 -11 21 7 0 19 -9 25 -19z m-2669 -16 c0 -5 -12
-14 -27 -21 -28 -13 -28 -13 -9 8 20 22 36 27 36 13z m3770 -33 c0 -6 -7 -8
-16 -5 -9 3 -18 6 -20 6 -2 0 -4 7 -4 15 0 13 4 14 20 5 11 -6 20 -16 20 -21z
m96 6 c16 -12 17 -14 2 -15 -25 0 -49 11 -42 21 7 13 17 11 40 -6z m-3926 -9
c0 -2 -8 -10 -17 -17 -16 -13 -17 -12 -4 4 13 16 21 21 21 13z m-40 -29 c0 -2
-12 -14 -27 -28 l-28 -24 24 28 c23 25 31 32 31 24z m3966 -84 c16 -21 18 -53
5 -53 -12 0 -16 8 -25 43 -7 31 1 35 20 10z m-4077 -50 c-39 -70 -44 -76 -34
-43 8 28 52 100 61 100 3 0 -9 -26 -27 -57z m4000 43 c6 -7 8 -21 5 -31 -7
-17 -8 -17 -21 1 -24 33 -10 62 16 30z m-3949 -29 c0 -2 -10 -12 -22 -23 l-23
-19 19 23 c18 21 26 27 26 19z m4065 -67 c-3 -5 -1 -19 5 -30 12 -22 3 -26
-21 -7 -12 9 -14 18 -8 35 5 13 13 20 19 17 6 -4 8 -10 5 -15z m54 -22 c5 -13
7 -25 5 -27 -7 -7 -34 21 -34 35 0 22 20 16 29 -8z m-1328 -2 c5 3 9 0 9 -6 0
-15 -23 -7 -26 8 -1 7 0 8 3 2 2 -5 9 -8 14 -4z m1269 -80 c0 -11 -19 -15 -25
-6 -3 5 1 10 9 10 9 0 16 -2 16 -4z m194 -48 c5 -10 7 -10 12 0 3 6 13 12 22
12 13 0 14 -2 4 -9 -7 -4 -12 -21 -10 -37 3 -28 1 -29 -37 -28 -47 0 -67 5
-77 19 -15 20 -8 35 16 35 14 0 28 5 31 10 9 14 32 12 39 -2z m-1504 -118
c-13 -8 -12 -10 3 -10 10 0 15 -5 12 -11 -4 -6 1 -17 11 -24 11 -8 14 -15 7
-15 -7 0 -23 11 -37 23 -19 18 -23 26 -14 35 7 7 17 12 23 12 5 0 3 -5 -5 -10z
m1568 -23 c20 -23 22 -30 11 -43 -12 -14 -15 -14 -30 5 -11 13 -23 19 -33 15
-16 -6 -81 15 -72 23 2 2 19 7 38 10 18 2 34 9 36 14 6 14 25 6 50 -24z m-153
-8 c10 -14 1 -21 -19 -13 -9 3 -13 10 -10 15 7 12 21 11 29 -2z m-3588 -35
c-3 -3 -12 -4 -19 -1 -8 3 -5 6 6 6 11 1 17 -2 13 -5z m2197 -16 c-3 -4 -11
-5 -19 -1 -21 7 -19 12 4 10 11 0 18 -5 15 -9z m17 -11 c-10 -9 -11 -8 -5 6 3
10 9 15 12 12 3 -3 0 -11 -7 -18z m-46 -7 c3 -5 1 -10 -4 -10 -6 0 -11 5 -11
10 0 6 2 10 4 10 3 0 8 -4 11 -10z m60 -60 c2 -4 -2 -13 -10 -20 -12 -10 -16
-9 -21 4 -5 13 -8 14 -20 1 -12 -11 -13 -19 -4 -36 7 -11 9 -23 7 -26 -3 -2
-8 5 -12 16 -3 12 -13 28 -22 36 -8 9 -12 19 -9 23 4 3 11 1 15 -6 6 -10 10
-10 19 0 12 16 49 21 57 8z m1580 -49 c3 -11 17 -26 30 -35 14 -9 25 -21 25
-26 0 -15 -36 -12 -50 5 -7 8 -10 15 -6 15 4 0 0 14 -9 30 -9 17 -11 30 -6 30
5 0 12 -9 16 -19z m-75 -25 c0 -9 -39 -13 -51 -5 -10 6 -4 9 19 9 17 0 32 -2
32 -4z m-3350 -26 c20 -6 21 -8 5 -8 -11 0 -29 3 -40 8 -25 11 1 11 35 0z
m1810 -20 c0 -5 -4 -10 -9 -10 -6 0 -13 5 -16 10 -3 6 1 10 9 10 9 0 16 -4 16
-10z m1806 -47 c-7 -7 -56 17 -56 27 0 7 13 4 30 -6 16 -10 28 -19 26 -21z
m-3736 -27 c55 -14 55 -14 -45 -8 -121 6 -245 -16 -319 -56 -55 -30 -166 -131
-144 -133 7 0 -9 -7 -36 -14 -28 -8 -55 -11 -60 -7 -31 19 -44 6 -51 -50 -3
-22 2 -29 29 -42 18 -9 39 -22 46 -31 7 -8 23 -15 36 -15 12 0 30 -7 39 -16 9
-9 35 -18 58 -20 23 -2 43 -8 45 -14 2 -6 7 -8 12 -5 4 2 18 -4 30 -15 12 -11
27 -17 31 -14 5 3 9 -4 9 -15 0 -12 5 -21 11 -21 5 0 8 4 5 9 -3 5 2 15 11 22
12 10 14 10 9 2 -4 -8 -1 -13 8 -13 9 0 16 -4 16 -10 0 -18 33 -11 57 12 l23
22 -3 -25 c-3 -17 -19 -33 -53 -52 -27 -16 -41 -26 -32 -23 10 3 20 1 23 -4 3
-5 -4 -12 -16 -15 -18 -6 -12 -10 32 -25 30 -10 67 -21 82 -24 21 -5 27 -11
23 -23 -4 -11 -2 -14 9 -10 8 4 20 1 27 -6 27 -25 49 -40 46 -31 -2 5 2 10 7
11 6 1 9 -5 7 -13 -2 -8 3 -14 10 -12 7 1 23 -3 36 -10 14 -8 22 -9 22 -2 0 6
12 8 27 6 15 -3 32 -1 38 4 7 6 24 11 39 12 14 1 26 6 26 10 0 4 10 12 21 19
17 9 20 8 13 -3 -6 -11 -5 -10 9 1 11 8 28 11 47 7 22 -4 30 -2 30 9 0 9 9 15
23 15 13 0 33 9 45 20 12 11 28 20 37 20 8 0 14 5 12 12 -1 7 9 12 22 13 15 0
32 12 47 35 13 19 24 31 24 27 0 -5 6 -2 14 5 9 10 13 34 12 74 l-3 59 13 -40
c44 -140 -23 -370 -145 -498 -177 -187 -420 -247 -670 -167 -309 98 -496 410
-426 708 17 70 61 164 100 210 60 71 183 131 315 152 69 11 217 4 290 -14z
m3605 -36 c8 -12 -25 -13 -44 -1 -21 14 -4 33 19 21 10 -6 22 -15 25 -20z
m153 6 c12 -4 22 -14 22 -22 0 -21 -15 -17 -47 10 -27 24 -21 27 25 12z
m-3836 -5 c21 -1 13 -31 -8 -31 -7 0 -11 -6 -8 -14 6 -15 -25 -25 -86 -29 -14
0 -31 -9 -38 -19 -7 -10 -22 -18 -33 -18 -11 0 -28 -4 -37 -9 -10 -5 -44 -12
-77 -14 -33 -3 -62 -6 -65 -7 -3 0 3 -7 13 -14 17 -13 15 -15 -18 -26 -20 -7
-39 -9 -42 -6 -8 8 122 133 157 151 65 34 140 45 242 36z m1328 -16 c-7 -9
-15 -13 -17 -11 -7 7 7 26 19 26 6 0 6 -6 -2 -15z m-2235 -25 c3 -5 1 -10 -4
-10 -6 0 -11 5 -11 10 0 6 2 10 4 10 3 0 8 -4 11 -10z m-392 -51 c-9 -9 -12
-7 -10 9 1 14 5 18 11 12 7 -7 6 -14 -1 -21z m5025 19 c8 -10 4 -13 -14 -14
-15 -1 -24 4 -24 12 0 17 24 18 38 2z m-4474 -37 c11 -17 -6 -41 -28 -40 -20
0 -20 1 -1 9 17 7 17 9 3 9 -25 1 -23 31 1 31 11 0 22 -4 25 -9z m73 -18 c2
-6 -5 -13 -17 -16 -12 -3 -20 0 -20 7 0 26 29 33 37 9z m4451 -20 c-4 -23 -48
-31 -48 -10 0 9 6 18 13 20 25 11 38 7 35 -10z m-3788 -58 c-7 -8 -16 -12 -21
-9 -13 8 -1 24 18 24 13 0 13 -3 3 -15z m3870 -20 c10 -9 27 -17 38 -18 11 0
20 -4 20 -7 -2 -19 4 -29 15 -24 20 7 51 -21 44 -40 -8 -21 -19 -20 -45 4 -22
21 -22 21 -43 1 -32 -29 -63 -21 -104 26 -30 36 -34 46 -25 63 9 16 18 19 46
16 20 -3 44 -12 54 -21z m-3971 -84 c-16 -5 -33 15 -24 30 6 9 12 7 22 -7 9
-13 10 -20 2 -23z m1031 -1 c0 -6 -30 -10 -72 -9 -55 1 -66 3 -43 9 45 11 115
11 115 0z m761 -183 c-8 -8 -11 -5 -11 9 0 27 14 41 18 19 2 -9 -1 -22 -7 -28z
m791 -73 c43 -93 50 -207 18 -319 -12 -44 -22 -89 -22 -99 1 -27 -17 -58 -30
-50 -7 4 -8 2 -4 -5 8 -12 -19 -62 -32 -59 -4 1 -39 -30 -77 -68 -39 -38 -98
-83 -130 -101 -72 -38 -195 -73 -250 -72 -22 1 -31 3 -20 5 192 40 284 85 388
190 101 101 161 223 177 359 10 86 -3 171 -36 236 -13 27 -22 49 -19 49 3 0
20 -30 37 -66z m1386 -7 c13 -16 4 -57 -12 -57 -10 0 -36 44 -36 62 0 13 37 9
48 -5z m192 3 c0 -5 -4 -10 -9 -10 -6 0 -13 5 -16 10 -3 6 1 10 9 10 9 0 16
-4 16 -10z m-3020 -94 c0 -3 -4 -8 -10 -11 -5 -3 -10 -1 -10 4 0 6 5 11 10 11
6 0 10 -2 10 -4z m1610 -6 c0 -5 -9 -10 -20 -10 -11 0 -20 5 -20 10 0 6 9 10
20 10 11 0 20 -4 20 -10z m65 -9 c-8 -13 -35 -15 -35 -2 0 5 8 11 18 13 21 5
26 2 17 -11z m1313 -20 c3 -8 -1 -12 -9 -9 -7 2 -15 10 -17 17 -3 8 1 12 9 9
7 -2 15 -10 17 -17z m-3457 -69 c-28 -54 -103 -144 -153 -183 -32 -25 -24 -13
33 47 42 45 89 102 104 128 33 56 43 61 16 8z m3509 -7 c0 -18 -8 -18 -40 0
l-25 14 33 1 c22 0 32 -5 32 -15z m-5866 -204 c3 -31 9 -101 12 -156 4 -56 11
-103 18 -107 7 -5 12 -58 14 -150 1 -79 8 -195 14 -258 15 -131 17 -324 5
-337 -13 -13 -37 28 -37 63 0 18 -6 34 -14 37 -17 7 -27 39 -56 172 -12 55
-26 120 -32 145 -5 25 -12 110 -15 190 -4 113 -2 162 11 220 9 41 23 112 31
158 8 45 17 87 21 93 11 18 22 -10 28 -70z m5696 -61 c0 -11 -4 -20 -10 -20
-5 0 -10 9 -10 20 0 11 5 20 10 20 6 0 10 -9 10 -20z m-2415 -170 c10 -11 16
-20 13 -20 -3 0 -13 9 -23 20 -10 11 -16 20 -13 20 3 0 13 -9 23 -20z m-1325
-44 c0 -3 -4 -8 -10 -11 -5 -3 -10 -1 -10 4 0 6 5 11 10 11 6 0 10 -2 10 -4z
m3894 -106 c-16 -16 -49 13 -40 35 6 18 8 17 29 -3 14 -15 18 -25 11 -32z
m-2890 -46 c9 -3 13 -10 10 -15 -3 -5 2 -12 11 -15 12 -5 13 -9 4 -20 -9 -11
-9 -14 0 -14 8 0 11 -11 9 -27 -2 -20 -9 -28 -24 -29 -20 -1 -20 1 -11 33 10
31 9 37 -12 53 -14 9 -21 22 -17 29 8 13 9 13 30 5z m653 -131 c0 -9 -4 -10
-14 -2 -7 6 -13 12 -13 14 0 1 6 2 13 2 8 0 14 -6 14 -14z m-17 -34 c0 -5 -6
-9 -12 -9 -9 0 -8 -4 2 -10 21 -14 28 -12 26 6 0 9 6 19 14 21 13 4 13 3 0 -6
-12 -9 -11 -11 8 -11 20 0 21 -2 10 -20 -7 -11 -21 -20 -31 -20 -10 0 -15 -5
-12 -11 4 -5 12 -8 18 -6 6 2 17 -1 23 -7 9 -8 6 -15 -9 -28 -16 -15 -17 -20
-7 -33 14 -17 40 -20 40 -4 0 5 5 7 12 3 7 -4 8 -3 4 5 -6 9 -11 9 -22 0 -8
-6 -17 -9 -21 -5 -3 3 -1 6 6 6 7 0 9 5 5 12 -4 7 -3 8 4 4 7 -4 12 -3 12 2 0
5 11 7 24 5 l25 -5 -20 -21 c-20 -22 -20 -22 1 -31 11 -5 20 -13 20 -18 0 -4
5 -8 11 -8 5 0 8 4 5 8 -3 5 1 9 8 9 8 0 13 -7 11 -16 -1 -9 -10 -15 -20 -13
-12 2 -16 -1 -12 -11 3 -7 1 -20 -4 -28 -8 -12 -12 -11 -24 5 -8 11 -17 17
-20 14 -3 -2 4 -15 15 -28 11 -12 17 -27 14 -32 -3 -4 0 -7 8 -6 7 2 12 -3 10
-11 -3 -12 -1 -12 14 0 12 9 15 9 10 2 -4 -8 -2 -13 5 -13 8 0 8 -4 -1 -15 -7
-9 -20 -15 -29 -14 -29 3 -39 -1 -45 -16 -4 -11 0 -15 12 -13 12 2 16 -3 14
-16 -2 -10 1 -15 6 -12 15 9 8 -22 -8 -37 -10 -9 -11 -9 -6 1 5 8 -1 12 -17
12 -14 0 -27 -7 -31 -15 -5 -15 1 -18 39 -17 17 1 17 0 2 -4 -9 -3 -15 -10
-12 -15 4 -5 2 -9 -3 -9 -5 0 -9 -6 -9 -14 0 -8 5 -14 11 -13 6 1 10 -4 8 -12
-3 -12 0 -12 12 -2 12 10 14 9 9 -8 -3 -11 -12 -22 -20 -25 -7 -3 -12 -2 -9 2
3 5 -6 20 -20 35 -14 15 -22 27 -18 27 3 0 1 7 -6 15 -7 8 -16 15 -21 15 -5 0
-9 -7 -9 -15 0 -8 6 -15 13 -15 7 0 8 -3 2 -8 -12 -9 -13 -42 -1 -60 5 -8 4
-18 -2 -24 -7 -7 -14 -4 -21 10 -6 10 -8 22 -4 25 3 4 -6 20 -21 37 -25 30
-30 27 -27 -12 1 -9 -3 -19 -9 -23 -5 -3 -10 -11 -10 -16 0 -6 5 -7 10 -4 6 3
10 2 10 -4 0 -5 -6 -11 -12 -14 -7 -3 -3 -4 10 -4 20 1 22 5 17 27 -5 19 -4
22 5 14 15 -15 9 -60 -8 -56 -6 1 -12 -5 -12 -14 0 -8 4 -13 9 -10 5 3 11 -3
14 -14 6 -22 -8 -28 -16 -7 -4 7 -6 6 -6 -5 -1 -9 4 -18 11 -20 9 -3 9 -6 0
-12 -8 -4 -16 1 -21 16 -10 25 -13 20 -15 -30 -1 -22 3 -31 12 -27 14 5 17
-11 3 -20 -6 -3 -6 -18 0 -38 11 -39 11 -40 0 -32 -6 3 -15 -4 -21 -16 -7 -12
-8 -19 -2 -15 5 3 12 -6 15 -19 2 -14 0 -28 -4 -31 -5 -3 -9 -10 -9 -15 0 -6
5 -7 12 -3 7 4 8 3 4 -4 -4 -6 -14 -8 -24 -5 -9 3 -14 3 -10 -2 11 -12 -19
-36 -36 -29 -9 3 -16 1 -16 -5 0 -6 5 -11 12 -11 6 0 2 -8 -10 -18 -14 -12
-17 -23 -12 -33 7 -11 3 -15 -15 -14 -13 0 -27 3 -31 7 -4 4 -13 3 -21 -3 -10
-9 -13 -8 -13 2 0 11 -3 11 -11 -1 -8 -12 -9 -9 -4 9 6 18 4 23 -7 18 -16 -5
-18 19 -4 41 4 6 5 16 2 21 -4 5 -2 20 3 33 6 16 5 32 -5 48 -7 14 -13 40 -14
58 0 20 -4 31 -10 27 -6 -4 -10 7 -10 25 0 23 5 33 20 37 16 4 18 9 9 24 -5
10 -6 19 -1 19 5 0 9 6 10 13 1 22 13 70 19 81 3 6 3 8 -2 4 -13 -12 -95 125
-95 160 0 12 -5 24 -10 27 -6 4 -1 15 12 26 22 19 22 20 2 10 -17 -8 -25 -7
-35 7 -7 9 -9 14 -5 10 13 -11 36 11 36 34 0 12 4 17 12 12 7 -4 8 -3 4 5 -4
6 -17 9 -30 7 -15 -3 -22 1 -23 13 -1 12 6 16 25 15 49 -3 53 -4 48 -13 -3 -5
0 -14 7 -20 11 -8 13 -7 12 7 -2 26 -18 47 -37 47 -10 0 -18 5 -17 10 1 6 5 9
11 7 5 -1 7 2 3 8 -5 8 -11 7 -21 -1 -16 -13 -27 -7 -30 17 -2 12 0 13 12 3
12 -10 13 -9 8 5 -5 12 -2 15 12 9 12 -4 15 -3 10 6 -5 7 0 21 10 32 16 17 16
19 1 19 -10 0 -17 5 -17 10 0 6 5 9 11 8 6 -2 13 6 15 17 1 11 8 21 14 23 5 2
8 7 6 11 -3 4 2 8 10 8 10 0 11 -4 4 -11 -16 -16 -12 -30 5 -16 12 10 18 10
30 0 13 -11 14 -10 9 4 -3 9 -10 16 -14 16 -4 0 -10 6 -13 14 -4 9 2 13 18 12
15 -1 22 -6 20 -17 -2 -9 3 -16 11 -16 8 0 12 3 9 5 -3 3 0 11 6 19 9 10 15
10 25 2 11 -9 14 -8 14 5 0 22 22 20 50 -4 13 -11 28 -20 33 -20 6 0 8 -3 4
-6 -3 -3 -20 1 -38 10 -18 9 -35 13 -38 10 -3 -4 -1 -8 4 -11 6 -2 17 -8 25
-13 13 -9 12 -12 -4 -25 -11 -8 -15 -15 -9 -15 6 0 16 6 22 14 7 8 21 13 32
11 12 -2 19 2 19 11 0 8 5 12 10 9 6 -3 10 -1 10 5 0 6 4 9 8 6 4 -2 8 4 8 14
0 10 -6 16 -12 13 -7 -2 -15 0 -19 6 -3 6 0 9 8 5 8 -3 18 -1 21 5 7 12 36 4
36 -10z m2320 -9 c0 -11 -2 -20 -4 -20 -2 0 -6 9 -9 20 -3 11 -1 20 4 20 5 0
9 -9 9 -20z m-2232 -14 c-7 -8 -15 -12 -17 -11 -5 6 10 25 20 25 5 0 4 -6 -3
-14z m22 -10 c0 -3 -4 -8 -10 -11 -5 -3 -10 -1 -10 4 0 6 5 11 10 11 6 0 10
-2 10 -4z m10 -40 c0 -3 -4 -8 -10 -11 -5 -3 -10 -1 -10 4 0 6 5 11 10 11 6 0
10 -2 10 -4z m-3072 -46 c38 -36 14 -42 -35 -9 -32 23 -41 34 -32 40 15 9 34
0 67 -31z m40 -69 c-7 -9 -14 -18 -15 -20 -2 -2 -3 8 -3 22 0 20 4 25 15 21
13 -5 13 -9 3 -23z m5291 -61 c2 -46 -20 -54 -51 -19 -28 30 -30 53 -3 43 8
-3 19 4 26 18 12 22 12 22 20 3 4 -11 8 -31 8 -45z m-2759 31 c0 -5 -7 -12
-16 -15 -14 -5 -15 -4 -4 9 14 17 20 19 20 6z m-2514 -38 c-4 -4 -11 -1 -16 7
-16 25 -11 35 7 17 9 -9 13 -20 9 -24z m5163 13 c9 -11 9 -16 0 -21 -10 -7
-28 10 -29 28 0 12 17 8 29 -7z m-33 -129 c2 -7 -7 -34 -19 -60 -21 -42 -25
-46 -37 -32 -11 13 -11 25 0 70 12 49 15 53 32 44 11 -6 21 -16 24 -22z
m-5523 -10 c2 -6 -2 -18 -9 -25 -12 -11 -14 -8 -14 13 0 26 14 34 23 12z
m2082 -17 c-3 -5 -10 -10 -16 -10 -5 0 -9 5 -9 10 0 6 7 10 16 10 8 0 12 -4 9
-10z m3556 -70 c5 0 8 -3 8 -7 -3 -21 3 -33 17 -33 9 0 14 -6 11 -12 -2 -7
-20 -13 -40 -13 -31 0 -36 4 -39 26 -5 35 1 51 19 45 8 -3 19 -6 24 -6z m-111
-51 c0 -14 -17 -10 -23 5 -4 10 -1 13 9 9 7 -3 14 -9 14 -14z m196 -45 c2 -14
0 -14 -17 1 -10 10 -16 22 -13 27 8 12 27 -6 30 -28z m-74 -19 c52 -55 52 -55
30 -76 -35 -32 -53 -25 -50 19 1 20 -1 47 -6 60 -10 29 -2 28 26 -3z m-3441
-71 c-5 -16 -10 -21 -10 -12 -1 18 10 51 15 45 2 -1 -1 -16 -5 -33z m3372 -15
c-3 -10 -11 -15 -19 -12 -13 5 -14 16 -5 62 1 3 7 -4 15 -14 7 -10 11 -26 9
-36z m-3310 21 c-3 -12 -8 -19 -11 -16 -5 6 5 36 12 36 2 0 2 -9 -1 -20z
m-2183 -142 c0 -16 -3 -19 -11 -11 -6 6 -8 16 -5 22 11 17 16 13 16 -11z
m5422 -72 c-3 -30 -8 -36 -28 -36 -25 0 -24 13 4 57 19 31 29 22 24 -21z
m-3037 -27 c-8 -12 -35 -12 -35 0 0 11 22 20 33 14 4 -2 5 -9 2 -14z m3128 4
c7 -11 -11 -53 -22 -53 -5 0 -12 7 -15 16 -10 25 24 58 37 37z m-3243 -47 c0
-3 -4 -8 -10 -11 -5 -3 -10 -1 -10 4 0 6 5 11 10 11 6 0 10 -2 10 -4z m826
-31 c-1 -8 -7 -20 -13 -26 -13 -13 -13 7 0 29 11 16 16 15 13 -3z m2384 -226
c0 -4 -6 -9 -14 -12 -15 -6 -36 11 -36 30 0 10 5 10 25 1 14 -6 25 -15 25 -19z
m-3177 -4 c-7 -21 -12 -19 -10 4 0 11 5 18 9 15 4 -3 5 -11 1 -19z m3231 -1
c8 -22 8 -24 -8 -24 -18 0 -29 16 -21 30 9 15 22 12 29 -6z m-6070 -300 c3 -8
2 -12 -4 -9 -6 3 -14 -4 -19 -17 -5 -13 -39 -53 -75 -90 -50 -51 -87 -78 -149
-108 -83 -40 -117 -49 -117 -30 0 10 13 19 110 83 122 80 168 106 175 99 4 -4
5 0 3 8 -1 8 3 14 10 13 6 -2 11 3 10 10 -2 6 2 11 9 10 8 -2 10 4 6 14 -4 10
-2 14 4 10 6 -4 13 0 17 8 7 19 12 19 20 -1z m2956 -9 c0 -2 -9 -3 -19 -2 -11
0 -18 5 -15 9 4 6 34 0 34 -7z m-31 -71 c4 3 8 -1 8 -9 0 -8 -4 -15 -7 -15
-13 0 -30 27 -23 34 4 4 9 2 11 -3 2 -6 7 -9 11 -7z m-3354 -185 c-8 -12 -35
-12 -35 0 0 11 22 20 33 14 4 -2 5 -9 2 -14z m6549 -85 c4 -9 14 -12 35 -8 19
4 35 1 44 -7 18 -19 14 -65 -8 -89 -19 -21 -19 -21 -35 20 -14 36 -18 40 -29
26 -20 -24 -37 -19 -51 13 -9 22 -9 35 -1 50 12 21 36 19 45 -5z m-3056 -16
c-2 -6 -10 -13 -16 -14 -7 -1 -8 0 -2 3 5 2 8 9 4 14 -3 5 0 9 6 9 7 0 10 -5
8 -12z m2970 -34 c1 -14 13 -35 27 -46 20 -16 23 -23 14 -34 -6 -8 -16 -11
-21 -8 -21 13 -45 66 -40 89 6 33 17 32 20 -1z m245 -519 c-3 -11 -2 -17 2
-13 4 4 23 -9 41 -28 26 -26 32 -39 26 -52 -5 -9 -8 -21 -7 -27 2 -12 23 -64
32 -77 3 -6 -5 -4 -18 3 -13 7 -26 10 -29 8 -3 -2 -9 6 -15 19 -5 12 -13 22
-17 22 -5 0 -8 9 -8 19 0 11 -5 23 -10 26 -6 4 -10 27 -9 51 2 35 -2 50 -19
67 -19 19 -24 20 -32 7 -14 -21 -12 -36 5 -54 8 -8 11 -17 6 -20 -12 -8 -28
13 -36 47 -5 17 -3 27 4 27 6 0 11 6 11 14 0 8 10 22 22 30 21 15 23 15 40
-16 9 -18 14 -42 11 -53z m-3122 -98 c-10 -9 -11 -8 -5 6 3 10 9 15 12 12 3
-3 0 -11 -7 -18z m3043 -5 c2 -4 1 -13 -3 -20 -4 -8 -11 -5 -19 8 -10 16 -10
20 2 20 8 0 17 -4 20 -8z m-1493 -525 c-10 -9 -11 -8 -5 6 3 10 9 15 12 12 3
-3 0 -11 -7 -18z m-1186 3 c-3 -5 -14 -10 -23 -10 -15 0 -15 2 -2 10 20 13 33
13 25 0z m-45 -84 c0 -2 -7 -7 -16 -10 -8 -3 -12 -2 -9 4 6 10 25 14 25 6z
m1140 -21 c-7 -8 -17 -15 -22 -15 -11 0 14 29 26 30 5 0 3 -7 -4 -15z m-944
-53 c-17 -33 -54 -64 -67 -56 -5 3 -7 15 -5 27 3 12 5 25 5 30 1 4 6 7 12 7 6
0 9 -9 6 -20 -3 -13 0 -20 9 -20 8 0 14 6 14 14 0 8 5 27 10 42 8 19 14 24 21
17 8 -8 6 -20 -5 -41z m-3267 -38 c21 -27 20 -44 -3 -44 -12 0 -36 40 -36 60
0 18 18 10 39 -16z m4171 -4 c0 -5 -4 -10 -10 -10 -5 0 -10 5 -10 10 0 6 5 10
10 10 6 0 10 -4 10 -10z m-890 -19 c0 -6 -4 -12 -8 -15 -5 -3 -9 1 -9 9 0 8 4
15 9 15 4 0 8 -4 8 -9z m927 -4 c-1 -6 8 -16 20 -22 l23 -12 -25 -21 c-31 -27
-37 -27 -62 1 -34 38 -36 55 -5 59 46 6 51 5 49 -5z m-962 -34 c8 -20 13 -38
11 -40 -2 -3 -7 5 -11 16 -3 12 -11 21 -16 21 -5 0 -9 9 -9 20 0 30 8 24 25
-17z m760 27 c3 -5 2 -10 -4 -10 -5 0 -13 5 -16 10 -3 6 -2 10 4 10 5 0 13 -4
16 -10z m-235 -44 c0 -2 -7 -7 -16 -10 -8 -3 -12 -2 -9 4 6 10 25 14 25 6z
m-220 -61 c0 -11 -33 -55 -41 -55 -11 0 -7 44 6 52 12 9 35 10 35 3z"/>
<path d="M4770 11790 c0 -5 5 -10 11 -10 5 0 7 5 4 10 -3 6 -8 10 -11 10 -2 0
-4 -4 -4 -10z"/>
<path d="M5178 11743 c7 -3 16 -2 19 1 4 3 -2 6 -13 5 -11 0 -14 -3 -6 -6z"/>
<path d="M5710 11482 c0 -5 7 -13 16 -16 10 -4 14 -1 12 6 -5 15 -28 23 -28
10z"/>
<path d="M5870 11320 c11 -20 30 -28 30 -12 0 11 -22 32 -32 32 -5 0 -4 -9 2
-20z"/>
<path d="M5950 11295 c-7 -9 -8 -15 -2 -15 5 0 12 7 16 15 3 8 4 15 2 15 -2 0
-9 -7 -16 -15z"/>
<path d="M5980 11280 c-8 -15 -8 -20 -1 -16 6 4 11 2 11 -4 0 -6 5 -8 12 -4 8
5 9 0 6 -14 -4 -12 -3 -22 1 -22 11 0 31 23 31 35 0 5 -4 4 -9 -3 -6 -10 -12
-4 -23 19 -16 32 -16 32 -28 9z"/>
<path d="M6026 11174 c-5 -14 -4 -15 9 -4 17 14 19 20 6 20 -5 0 -12 -7 -15
-16z"/>
<path d="M6085 11140 c6 -10 4 -12 -8 -7 -9 3 -18 3 -21 -1 -3 -4 4 -8 14 -9
23 -2 35 13 19 23 -8 5 -9 3 -4 -6z"/>
<path d="M6026 11117 c3 -10 9 -15 12 -12 3 3 0 11 -7 18 -10 9 -11 8 -5 -6z"/>
<path d="M6096 11022 c-3 -6 1 -13 10 -16 23 -9 28 -2 10 13 -8 7 -17 8 -20 3z"/>
<path d="M6150 10995 c0 -8 7 -15 15 -15 8 0 15 4 15 9 0 5 -7 11 -15 15 -9 3
-15 0 -15 -9z"/>
<path d="M6090 10857 c0 -15 27 -43 34 -36 3 2 -4 15 -15 28 -13 16 -19 18
-19 8z"/>
<path d="M5890 10820 c0 -5 5 -10 10 -10 6 0 10 5 10 10 0 6 -4 10 -10 10 -5
0 -10 -4 -10 -10z"/>
<path d="M6021 10810 c-11 -6 -10 -9 0 -16 25 -15 49 -15 43 0 -7 19 -27 26
-43 16z"/>
<path d="M5970 10730 c0 -5 5 -10 11 -10 5 0 7 5 4 10 -3 6 -8 10 -11 10 -2 0
-4 -4 -4 -10z"/>
<path d="M6047 10693 c-4 -3 -7 -11 -7 -17 0 -6 5 -5 12 2 6 6 9 14 7 17 -3 3
-9 2 -12 -2z"/>
<path d="M6090 10595 c-10 -12 -10 -19 -2 -27 9 -9 12 -9 12 1 0 11 3 11 15 1
21 -18 29 -6 13 19 -15 25 -21 26 -38 6z"/>
<path d="M4198 10403 c7 -3 16 -2 19 1 4 3 -2 6 -13 5 -11 0 -14 -3 -6 -6z"/>
<path d="M3728 10363 c12 -2 30 -2 40 0 9 3 -1 5 -23 4 -22 0 -30 -2 -17 -4z"/>
<path d="M3670 10341 c-14 -4 -24 -13 -23 -19 2 -10 -30 -23 -82 -35 -11 -3
-2 -5 21 -6 26 -1 47 5 60 17 10 10 30 25 44 35 26 18 21 20 -20 8z"/>
<path d="M3727 10344 c-14 -14 -6 -19 33 -19 22 0 40 3 40 8 0 4 -9 7 -19 7
-11 0 -26 2 -33 5 -8 3 -17 2 -21 -1z"/>
<path d="M3600 10330 c0 -5 5 -10 10 -10 6 0 10 5 10 10 0 6 -4 10 -10 10 -5
0 -10 -4 -10 -10z"/>
<path d="M3703 10293 c9 -2 23 -2 30 0 6 3 -1 5 -18 5 -16 0 -22 -2 -12 -5z"/>
<path d="M4165 10274 c9 -9 19 -13 23 -10 3 4 0 11 -8 16 -24 15 -33 11 -15
-6z"/>
<path d="M4851 10154 c0 -11 3 -14 6 -6 3 7 2 16 -1 19 -3 4 -6 -2 -5 -13z"/>
<path d="M3655 9729 c-4 -6 -5 -13 -2 -16 7 -7 27 6 27 18 0 12 -17 12 -25 -2z"/>
<path d="M4217 9363 c-11 -11 -8 -20 7 -20 8 0 12 6 9 14 -6 15 -7 15 -16 6z"/>
<path d="M6033 8297 c0 -7 8 -14 18 -14 12 -1 16 3 12 13 -7 18 -30 19 -30 1z"/>
<path d="M5747 8283 c-13 -12 -7 -23 13 -23 11 0 20 7 20 15 0 15 -21 21 -33
8z"/>
<path d="M5996 8152 c-3 -5 1 -9 9 -9 8 0 12 4 9 9 -3 4 -7 8 -9 8 -2 0 -6 -4
-9 -8z"/>
<path d="M5996 8093 c-3 -7 -15 -13 -26 -13 -12 0 -19 -4 -15 -9 7 -13 46 -10
69 5 10 7 25 10 32 7 9 -3 12 0 9 9 -7 18 -62 19 -69 1z"/>
<path d="M5770 8084 c0 -3 4 -13 9 -23 7 -13 4 -25 -15 -46 -22 -26 -23 -30
-8 -46 9 -10 14 -25 10 -34 -3 -8 -1 -25 3 -38 5 -12 12 -30 15 -40 5 -15 8
-16 19 -5 8 7 12 22 10 33 -4 16 -3 17 5 6 9 -12 12 -10 18 13 4 16 2 32 -5
39 -6 6 -11 20 -11 31 0 19 0 19 -22 0 -19 -17 -21 -17 -15 -1 7 19 -9 24 -16
5 -4 -8 -6 -7 -6 3 -1 9 6 19 14 23 8 3 15 1 15 -4 0 -12 46 -6 64 10 13 10
16 10 16 -4 0 -10 5 -14 11 -10 7 4 6 12 -5 23 -15 14 -18 14 -26 1 -8 -12
-10 -12 -10 -1 0 8 -3 11 -7 8 -9 -9 -44 23 -37 34 3 5 0 9 -6 9 -6 0 -8 5 -5
10 3 6 1 10 -4 10 -6 0 -11 -3 -11 -6z"/>
<path d="M5914 8043 c6 -32 18 -53 27 -47 5 3 5 14 -1 25 -6 11 -8 24 -5 29 3
6 -1 10 -9 10 -10 0 -15 -7 -12 -17z"/>
<path d="M5855 7959 c-4 -5 -4 -13 -1 -16 3 -4 6 0 6 8 0 11 2 11 10 -1 6 -9
10 -10 10 -3 0 17 -17 25 -25 12z"/>
<path d="M5730 7901 c0 -5 -3 -16 -6 -25 -10 -26 10 -18 23 9 9 20 8 25 -3 25
-8 0 -14 -4 -14 -9z"/>
<path d="M5750 7881 c0 -6 4 -12 8 -15 5 -3 9 1 9 9 0 8 -4 15 -9 15 -4 0 -8
-4 -8 -9z"/>
<path d="M10135 12900 c-4 -6 -11 -8 -16 -5 -5 4 -9 1 -9 -4 0 -15 11 -13 34
4 11 8 15 15 9 15 -7 0 -15 -5 -18 -10z"/>
<path d="M5312 12852 c2 -21 8 -26 23 -24 21 4 52 29 44 35 -2 2 -19 7 -37 10
-32 6 -33 5 -30 -21z"/>
<path d="M4728 12853 c7 -3 16 -2 19 1 4 3 -2 6 -13 5 -11 0 -14 -3 -6 -6z"/>
<path d="M5270 12840 c0 -5 5 -10 10 -10 6 0 10 5 10 10 0 6 -4 10 -10 10 -5
0 -10 -4 -10 -10z"/>
<path d="M9797 12814 c-3 -3 -3 -12 -1 -19 3 -7 -4 -20 -16 -28 -12 -8 -17
-17 -12 -21 14 -9 40 16 48 47 6 25 -4 36 -19 21z"/>
<path d="M8800 12794 c0 -8 5 -12 10 -9 6 4 8 11 5 16 -9 14 -15 11 -15 -7z"/>
<path d="M10195 12740 c-8 -13 -1 -24 14 -19 6 3 7 10 2 18 -6 10 -10 10 -16
1z"/>
<path d="M9530 12710 c0 -5 5 -10 11 -10 5 0 7 5 4 10 -3 6 -8 10 -11 10 -2 0
-4 -4 -4 -10z"/>
<path d="M9855 12651 c-3 -5 0 -13 6 -16 5 -4 8 -13 5 -20 -6 -17 21 -55 41
-55 13 0 13 3 2 16 -9 11 -9 18 -2 22 7 5 3 17 -12 35 -26 29 -31 32 -40 18z"/>
<path d="M9350 12530 c-8 -5 -26 -10 -40 -10 -24 -1 -25 -1 -5 -16 12 -9 21
-11 23 -4 2 5 9 10 17 10 7 0 18 7 25 15 14 17 3 20 -20 5z"/>
<path d="M9961 12521 c-8 -6 -11 -16 -7 -27 5 -12 10 -14 17 -7 16 16 7 45
-10 34z"/>
<path d="M10098 12523 c7 -3 16 -2 19 1 4 3 -2 6 -13 5 -11 0 -14 -3 -6 -6z"/>
<path d="M9917 12483 c-4 -3 -7 -11 -7 -17 0 -6 5 -5 12 2 6 6 9 14 7 17 -3 3
-9 2 -12 -2z"/>
<path d="M10206 12458 c3 -5 10 -6 15 -3 13 9 11 12 -6 12 -8 0 -12 -4 -9 -9z"/>
<path d="M9990 12413 c1 -11 50 -46 57 -40 2 3 -5 15 -16 26 -21 21 -41 28
-41 14z"/>
<path d="M9530 11790 c0 -5 5 -10 10 -10 6 0 10 5 10 10 0 6 -4 10 -10 10 -5
0 -10 -4 -10 -10z"/>
<path d="M8190 11690 c0 -5 5 -10 10 -10 6 0 10 5 10 10 0 6 -4 10 -10 10 -5
0 -10 -4 -10 -10z"/>
<path d="M7380 11675 c-7 -9 -11 -17 -8 -20 8 -8 62 11 66 23 6 18 -43 15 -58
-3z"/>
<path d="M7475 11660 c-3 -5 1 -10 10 -10 9 0 13 5 10 10 -3 6 -8 10 -10 10
-2 0 -7 -4 -10 -10z"/>
<path d="M8715 11579 c-4 -6 -4 -13 -1 -16 8 -8 36 5 36 17 0 13 -27 13 -35
-1z"/>
<path d="M8166 11472 c-8 -13 29 -72 45 -72 17 0 9 28 -14 56 -16 19 -26 24
-31 16z"/>
<path d="M7240 11400 c0 -5 7 -7 15 -4 8 4 15 8 15 10 0 2 -7 4 -15 4 -8 0
-15 -4 -15 -10z"/>
<path d="M8106 11268 c-3 -7 -7 -26 -11 -43 l-6 -30 25 30 c29 34 33 55 11 55
-9 0 -17 -6 -19 -12z"/>
<path d="M8175 11260 c3 -5 11 -10 16 -10 6 0 7 5 4 10 -3 6 -11 10 -16 10 -6
0 -7 -4 -4 -10z"/>
<path d="M8253 11235 c-3 -9 -3 -18 0 -21 9 -9 27 6 27 22 0 19 -19 18 -27 -1z"/>
<path d="M8330 11215 c-8 -9 -8 -15 -2 -15 12 0 26 19 19 26 -2 2 -10 -2 -17
-11z"/>
<path d="M10015 11190 c-3 -5 -2 -10 4 -10 5 0 13 5 16 10 3 6 2 10 -4 10 -5
0 -13 -4 -16 -10z"/>
<path d="M7455 11179 c-10 -15 1 -23 20 -15 9 3 13 10 10 16 -8 13 -22 13 -30
-1z"/>
<path d="M7998 11123 c7 -3 16 -2 19 1 4 3 -2 6 -13 5 -11 0 -14 -3 -6 -6z"/>
<path d="M8580 11111 c0 -5 5 -13 10 -16 6 -3 10 -2 10 4 0 5 -4 13 -10 16 -5
3 -10 2 -10 -4z"/>
<path d="M7910 11100 c0 -5 7 -10 15 -10 8 0 15 5 15 10 0 6 -7 10 -15 10 -8
0 -15 -4 -15 -10z"/>
<path d="M7830 11005 c0 -9 5 -15 11 -13 6 2 11 8 11 13 0 5 -5 11 -11 13 -6
2 -11 -4 -11 -13z"/>
<path d="M7776 10961 c-7 -11 17 -21 47 -21 22 1 22 1 3 15 -22 17 -42 19 -50
6z"/>
<path d="M7750 10790 c0 -5 5 -10 11 -10 5 0 7 5 4 10 -3 6 -8 10 -11 10 -2 0
-4 -4 -4 -10z"/>
<path d="M7945 10771 c-3 -5 -1 -12 5 -16 14 -9 52 4 45 16 -8 12 -42 12 -50
0z"/>
<path d="M7770 10733 c0 -11 21 -33 31 -33 4 0 6 8 5 18 -3 17 -36 31 -36 15z"/>
<path d="M7847 10703 c-12 -11 -8 -23 7 -23 8 0 16 7 20 15 5 15 -14 21 -27 8z"/>
<path d="M7853 10636 c22 -17 22 -26 -2 -26 -23 0 -36 -16 -21 -25 6 -4 23 -8
38 -11 15 -3 35 -7 44 -10 13 -4 16 1 14 22 -2 19 -13 32 -37 45 -40 21 -62
24 -36 5z"/>
<path d="M7950 10585 c0 -21 30 -31 41 -14 14 23 11 29 -16 29 -16 0 -25 -6
-25 -15z"/>
<path d="M7904 10515 c8 -8 25 -15 38 -15 22 1 22 1 4 15 -11 8 -28 15 -39 15
-16 0 -17 -2 -3 -15z"/>
<path d="M7860 10506 c6 -8 18 -12 27 -9 12 5 12 7 1 14 -7 5 -19 9 -27 9 -11
0 -11 -3 -1 -14z"/>
<path d="M7980 10500 c-13 -9 -13 -11 -1 -19 17 -11 43 -3 38 12 -5 15 -20 18
-37 7z"/>
<path d="M8310 10415 c-14 -16 -6 -35 16 -35 8 0 14 10 14 25 0 28 -12 32 -30
10z"/>
<path d="M8103 10297 c-18 -6 -33 -15 -33 -22 0 -22 28 -38 55 -31 18 5 25 2
25 -8 0 -16 28 -42 36 -33 11 10 -7 46 -26 52 -10 3 -20 16 -22 28 -3 21 -6
22 -35 14z"/>
<path d="M8695 10300 c3 -5 8 -10 11 -10 2 0 4 5 4 10 0 6 -5 10 -11 10 -5 0
-7 -4 -4 -10z"/>
<path d="M8484 10244 c3 -9 6 -18 6 -20 0 -2 7 -4 15 -4 8 0 15 9 15 20 0 14
-7 20 -21 20 -15 0 -19 -4 -15 -16z"/>
<path d="M8084 10205 c-10 -8 -14 -15 -7 -15 6 0 18 -3 27 -6 10 -4 16 -1 16
9 0 23 -15 28 -36 12z"/>
<path d="M8216 10213 c-13 -13 -5 -22 25 -28 27 -6 61 7 48 18 -9 8 -67 16
-73 10z"/>
<path d="M9918 10213 c7 -3 16 -2 19 1 4 3 -2 6 -13 5 -11 0 -14 -3 -6 -6z"/>
<path d="M8425 10149 c-4 -6 -4 -13 -1 -16 8 -8 36 5 36 17 0 13 -27 13 -35
-1z"/>
<path d="M8250 10115 c0 -8 5 -15 10 -15 6 0 10 7 10 15 0 8 -4 15 -10 15 -5
0 -10 -7 -10 -15z"/>
<path d="M8477 10094 c-9 -10 64 -56 79 -50 24 9 16 21 -23 36 -21 8 -41 16
-44 18 -3 1 -8 0 -12 -4z"/>
<path d="M8246 10045 c16 -24 34 -34 34 -17 -1 13 -27 42 -39 42 -7 0 -6 -9 5
-25z"/>
<path d="M8312 10009 c2 -6 8 -10 13 -10 5 0 11 4 13 10 2 6 -4 11 -13 11 -9
0 -15 -5 -13 -11z"/>
<path d="M8225 9970 c3 -5 15 -10 26 -10 11 0 17 5 14 10 -3 6 -15 10 -26 10
-11 0 -17 -4 -14 -10z"/>
<path d="M8245 9900 c4 -6 11 -8 16 -5 14 9 11 15 -7 15 -8 0 -12 -5 -9 -10z"/>
<path d="M8245 9750 c3 -5 8 -10 11 -10 2 0 4 5 4 10 0 6 -5 10 -11 10 -5 0
-7 -4 -4 -10z"/>
<path d="M8370 9672 c0 -13 23 -32 39 -32 11 0 10 4 -4 20 -19 21 -35 26 -35
12z"/>
<path d="M9005 9570 c-4 -6 3 -10 14 -10 25 0 27 6 6 13 -8 4 -17 2 -20 -3z"/>
<path d="M8381 9556 c-8 -10 -9 -16 -1 -21 13 -8 30 3 30 21 0 18 -14 18 -29
0z"/>
<path d="M8270 9538 c0 -9 7 -22 17 -29 15 -13 15 -12 3 11 -17 34 -20 36 -20
18z"/>
<path d="M9520 9525 c0 -8 5 -15 10 -15 6 0 10 7 10 15 0 8 -4 15 -10 15 -5 0
-10 -7 -10 -15z"/>
<path d="M8907 9504 c-11 -11 3 -24 18 -18 8 4 12 10 9 15 -6 11 -18 12 -27 3z"/>
<path d="M2962 9470 c0 -14 2 -19 5 -12 2 6 2 18 0 25 -3 6 -5 1 -5 -13z"/>
<path d="M8365 9440 c3 -5 8 -10 11 -10 2 0 4 5 4 10 0 6 -5 10 -11 10 -5 0
-7 -4 -4 -10z"/>
<path d="M2970 9406 c0 -40 8 -66 22 -66 14 0 6 89 -9 94 -9 4 -13 -5 -13 -28z"/>
<path d="M9670 9430 c0 -5 5 -10 10 -10 6 0 10 5 10 10 0 6 -4 10 -10 10 -5 0
-10 -4 -10 -10z"/>
<path d="M8390 9225 c0 -2 9 -9 20 -15 16 -9 18 -8 14 5 -5 13 -34 22 -34 10z"/>
<path d="M8809 9094 c-12 -14 -11 -16 5 -13 11 2 21 10 24 17 5 17 -13 15 -29
-4z"/>
<path d="M8665 9049 c-7 -10 10 -28 28 -29 12 0 8 17 -7 29 -11 9 -16 9 -21 0z"/>
<path d="M8535 9000 c3 -5 8 -10 11 -10 2 0 4 5 4 10 0 6 -5 10 -11 10 -5 0
-7 -4 -4 -10z"/>
<path d="M8830 8999 c0 -5 5 -7 10 -4 6 3 10 8 10 11 0 2 -4 4 -10 4 -5 0 -10
-5 -10 -11z"/>
<path d="M2221 8934 c0 -11 3 -14 6 -6 3 7 2 16 -1 19 -3 4 -6 -2 -5 -13z"/>
<path d="M8480 8915 c7 -8 16 -15 21 -15 5 0 6 7 3 15 -4 8 -13 15 -21 15 -13
0 -13 -3 -3 -15z"/>
<path d="M8560 8910 c0 -5 5 -10 10 -10 6 0 10 5 10 10 0 6 -4 10 -10 10 -5 0
-10 -4 -10 -10z"/>
<path d="M8760 8861 c0 -5 7 -12 16 -15 14 -5 15 -4 4 9 -14 17 -20 19 -20 6z"/>
<path d="M4190 8844 c0 -8 5 -12 10 -9 6 4 8 11 5 16 -9 14 -15 11 -15 -7z"/>
<path d="M8864 8805 c3 -8 -3 -19 -12 -25 -13 -8 -13 -10 -2 -9 8 1 22 0 30
-3 78 -26 78 -26 83 -6 6 20 1 22 -71 46 -28 9 -33 9 -28 -3z"/>
<path d="M8526 8780 c6 -25 3 -31 -20 -40 -22 -8 -27 -15 -24 -38 3 -23 7 -27
36 -27 29 0 32 -2 32 -32 0 -17 -4 -34 -9 -37 -5 -3 -18 -24 -30 -46 l-21 -41
30 -10 c16 -6 30 -17 30 -25 0 -8 5 -14 10 -14 6 0 8 11 4 27 -5 18 -2 30 10
38 14 10 14 14 3 24 -29 23 -5 67 34 63 3 -1 6 5 6 13 0 8 -4 12 -8 9 -13 -7
-39 38 -39 68 0 27 10 33 47 29 6 -1 14 3 17 8 7 11 -22 24 -35 15 -5 -3 -14
6 -21 20 -7 17 -19 26 -34 26 -21 0 -23 -4 -18 -30z"/>
<path d="M4370 8749 c0 -5 5 -7 10 -4 6 3 10 8 10 11 0 2 -4 4 -10 4 -5 0 -10
-5 -10 -11z"/>
<path d="M4673 8715 c-42 -18 -58 -48 -38 -69 18 -18 78 -14 163 11 43 13 50
18 40 30 -34 41 -106 54 -165 28z"/>
<path d="M8620 8676 c0 -17 14 -29 23 -20 8 8 -3 34 -14 34 -5 0 -9 -6 -9 -14z"/>
<path d="M2210 8628 c0 -31 4 -59 8 -62 15 -9 17 78 2 103 -7 11 -9 0 -10 -41z"/>
<path d="M8912 8639 c2 -7 10 -15 17 -17 8 -3 12 1 9 9 -2 7 -10 15 -17 17 -8
3 -12 -1 -9 -9z"/>
<path d="M8627 8610 c-9 -11 -17 -31 -17 -44 0 -19 5 -23 28 -22 25 1 27 4 24
36 -4 46 -14 54 -35 30z"/>
<path d="M4660 8570 c20 -13 33 -13 25 0 -3 6 -14 10 -23 10 -15 0 -15 -2 -2
-10z"/>
<path d="M4075 8530 c-3 -6 1 -7 9 -4 18 7 21 14 7 14 -6 0 -13 -4 -16 -10z"/>
<path d="M8421 8501 c-29 -19 11 -60 45 -47 14 6 15 9 2 28 -18 26 -28 31 -47
19z"/>
<path d="M8592 8457 c-7 -8 -8 -18 -4 -23 4 -4 0 -3 -9 4 -13 10 -19 9 -29 -2
-9 -12 -16 -13 -31 -3 -23 14 -43 -1 -33 -26 7 -18 39 -23 49 -7 3 5 13 6 22
3 9 -4 14 -2 10 3 -3 6 3 11 14 11 15 1 17 -2 9 -16 -6 -13 -4 -25 7 -41 16
-22 11 -31 -21 -43 -14 -5 3 -57 19 -57 16 0 25 56 22 142 -2 62 -8 75 -25 55z"/>
<path d="M8690 8446 c0 -2 7 -7 16 -10 8 -3 12 -2 9 4 -6 10 -25 14 -25 6z"/>
<path d="M8730 8439 c0 -4 10 -7 23 -6 12 0 31 -3 42 -8 19 -7 19 -7 -1 8 -20
16 -64 19 -64 6z"/>
<path d="M9995 8400 c4 -6 11 -8 16 -5 14 9 11 15 -7 15 -8 0 -12 -5 -9 -10z"/>
<path d="M8822 8388 c2 -6 10 -14 16 -16 7 -2 10 2 6 12 -7 18 -28 22 -22 4z"/>
<path d="M4874 8366 c-23 -24 -38 -92 -23 -102 5 -3 8 0 7 8 -2 7 3 12 10 11
7 -2 12 9 12 30 0 22 3 28 9 18 6 -10 9 -2 9 23 0 20 -1 36 -1 35 -1 0 -11
-10 -23 -23z"/>
<path d="M8871 8297 c-6 -8 -8 -16 -5 -20 10 -9 34 4 34 19 0 18 -14 18 -29 1z"/>
<path d="M5090 8214 c0 -8 5 -12 10 -9 6 3 10 10 10 16 0 5 -4 9 -10 9 -5 0
-10 -7 -10 -16z"/>
<path d="M8470 8221 c0 -5 7 -12 16 -15 24 -9 28 -7 14 9 -14 17 -30 20 -30 6z"/>
<path d="M9811 8194 c0 -11 3 -14 6 -6 3 7 2 16 -1 19 -3 4 -6 -2 -5 -13z"/>
<path d="M4790 8120 c0 -5 7 -10 15 -10 8 0 15 5 15 10 0 6 -7 10 -15 10 -8 0
-15 -4 -15 -10z"/>
<path d="M8588 8118 c-8 -21 2 -38 23 -38 20 0 23 8 13 34 -7 19 -30 21 -36 4z"/>
<path d="M4590 8079 c-11 -19 -10 -20 9 -9 12 6 21 15 21 20 0 18 -19 11 -30
-11z"/>
<path d="M4790 8090 c0 -5 10 -10 23 -10 18 0 19 2 7 10 -19 13 -30 13 -30 0z"/>
<path d="M8495 7810 c-4 -13 -2 -74 4 -122 1 -5 7 -8 15 -8 7 0 16 -10 20 -22
4 -19 8 -20 18 -10 11 11 9 17 -9 32 -27 22 -29 36 -7 48 19 10 14 34 -16 72
-15 20 -20 22 -25 10z"/>
<path d="M4610 7791 c0 -5 7 -12 16 -15 14 -5 15 -4 4 9 -14 17 -20 19 -20 6z"/>
<path d="M4662 7778 c2 -6 10 -14 16 -16 7 -2 10 2 6 12 -7 18 -28 22 -22 4z"/>
<path d="M4710 7756 c0 -2 11 -6 25 -8 14 -3 25 -1 25 3 0 5 -11 9 -25 9 -14
0 -25 -2 -25 -4z"/>
<path d="M3805 7650 c-3 -5 -1 -10 4 -10 6 0 11 5 11 10 0 6 -2 10 -4 10 -3 0
-8 -4 -11 -10z"/>
<path d="M4870 7631 c0 -5 7 -12 16 -15 14 -5 15 -4 4 9 -14 17 -20 19 -20 6z"/>
<path d="M8380 7401 c0 -6 4 -13 10 -16 6 -3 7 1 4 9 -7 18 -14 21 -14 7z"/>
<path d="M4986 7353 c-4 -9 -3 -20 1 -24 4 -4 9 3 9 17 2 28 -1 31 -10 7z"/>
<path d="M4996 7292 c-3 -5 1 -9 9 -9 8 0 12 4 9 9 -3 4 -7 8 -9 8 -2 0 -6 -4
-9 -8z"/>
<path d="M4990 7201 c0 -6 4 -13 10 -16 6 -3 7 1 4 9 -7 18 -14 21 -14 7z"/>
<path d="M4932 7178 c3 -7 12 -14 21 -16 12 -2 15 1 11 12 -7 19 -38 22 -32 4z"/>
<path d="M4959 7144 c5 -3 6 -17 1 -33 -5 -20 -4 -28 5 -28 16 0 14 60 -3 63
-7 1 -8 0 -3 -2z"/>
<path d="M8437 6843 c-12 -11 -8 -23 8 -23 8 0 15 7 15 15 0 16 -12 20 -23 8z"/>
<path d="M8487 6776 c-6 -16 11 -36 30 -36 16 0 16 5 3 31 -12 22 -26 25 -33
5z"/>
<path d="M8630 6601 c0 -12 29 -23 41 -15 16 10 9 20 -16 22 -14 1 -25 -2 -25
-7z"/>
<path d="M8476 6392 c-6 -11 41 -38 50 -29 4 3 4 13 1 22 -7 16 -42 21 -51 7z"/>
<path d="M8617 6103 c-11 -10 -8 -20 9 -37 22 -22 36 -10 22 19 -11 26 -20 30
-31 18z"/>
<path d="M5390 5875 c0 -8 4 -15 8 -15 5 0 9 7 9 15 0 8 -4 15 -9 15 -4 0 -8
-7 -8 -15z"/>
<path d="M9257 5873 c-13 -12 -7 -33 8 -33 8 0 15 9 15 20 0 20 -11 26 -23 13z"/>
<path d="M5320 5786 c0 -31 6 -34 13 -6 3 11 1 23 -4 26 -5 3 -9 -6 -9 -20z"/>
<path d="M8970 5798 c1 -7 7 -24 15 -38 14 -24 14 -24 15 -3 0 28 -10 53 -21
53 -5 0 -9 -6 -9 -12z"/>
<path d="M8898 5792 c-23 -5 -23 -18 -1 -26 9 -4 23 0 31 7 11 12 11 15 0 19
-7 2 -21 3 -30 0z"/>
<path d="M8996 5674 c-8 -21 11 -44 35 -44 21 0 24 12 9 41 -13 23 -36 25 -44
3z"/>
<path d="M9240 5680 c0 -5 5 -10 10 -10 6 0 10 5 10 10 0 6 -4 10 -10 10 -5 0
-10 -4 -10 -10z"/>
<path d="M5325 5670 c3 -5 12 -7 20 -3 21 7 19 13 -6 13 -11 0 -18 -4 -14 -10z"/>
<path d="M9170 5671 c0 -5 7 -14 15 -21 12 -10 19 -10 28 -1 9 9 9 14 -3 21
-19 12 -40 13 -40 1z"/>
<path d="M9823 5664 c-7 -19 2 -28 22 -21 19 8 19 23 0 31 -9 3 -18 -1 -22
-10z"/>
<path d="M9335 5650 c-3 -5 -1 -10 4 -10 6 0 11 5 11 10 0 6 -2 10 -4 10 -3 0
-8 -4 -11 -10z"/>
<path d="M9075 5610 c3 -5 11 -10 16 -10 6 0 7 5 4 10 -3 6 -11 10 -16 10 -6
0 -7 -4 -4 -10z"/>
<path d="M9342 5578 c3 -35 19 -46 74 -55 23 -3 33 0 38 12 3 10 2 14 -5 10
-17 -11 -66 15 -77 41 -16 34 -33 30 -30 -8z"/>
<path d="M9300 5562 c0 -7 -9 -12 -20 -12 -13 0 -18 -5 -14 -15 8 -20 43 -19
51 1 3 8 1 20 -6 27 -8 8 -11 8 -11 -1z"/>
<path d="M9786 5545 c-9 -9 -20 -34 -26 -55 -6 -22 -15 -40 -20 -40 -6 0 -10
-6 -10 -14 0 -26 -30 -40 -82 -37 -60 3 -104 23 -113 51 -8 24 -18 25 -56 3
-28 -17 -30 -17 -45 5 -18 26 -32 28 -49 5 -11 -15 -15 -14 -39 10 -27 27 -56
27 -56 1 0 -14 -21 -18 -67 -14 -13 1 -23 -2 -23 -6 0 -8 49 -84 61 -94 3 -3
21 -32 39 -65 43 -76 106 -169 125 -185 8 -7 15 -20 15 -30 0 -9 10 -25 21
-36 12 -10 30 -37 41 -59 10 -22 34 -67 52 -100 52 -96 61 -113 125 -245 33
-69 75 -150 92 -180 17 -30 44 -89 61 -130 16 -41 33 -79 38 -85 4 -5 35 -72
69 -147 33 -76 82 -179 109 -230 73 -144 127 -273 160 -388 l31 -105 0 713 c0
392 -3 711 -8 708 -4 -3 -8 1 -8 9 0 8 3 15 7 15 4 0 8 36 9 80 1 57 -1 80
-10 78 -6 -2 -14 3 -16 10 -3 6 0 12 6 12 6 0 8 6 5 14 -3 8 -18 14 -34 14
-16 -1 -27 -4 -25 -8 2 -4 -2 -7 -9 -7 -7 0 -13 6 -13 13 0 7 5 12 11 11 6 -1
10 8 8 21 -2 16 2 22 16 22 18 0 52 28 52 43 0 4 -10 7 -22 7 l-21 0 21 23
c28 29 27 33 -2 32 -13 0 -32 -10 -43 -23 l-18 -23 -24 20 c-30 26 -46 26 -71
1 -11 -11 -27 -20 -36 -20 -12 0 -14 8 -9 44 8 53 -1 75 -20 50 -17 -23 -49
-11 -42 16 3 13 0 20 -9 20 -21 0 -17 12 14 36 25 21 26 24 10 39 -15 16 -17
16 -28 -6 -16 -30 -51 -69 -62 -69 -5 0 -6 6 -2 13 5 9 4 9 -6 0 -10 -9 -16
-8 -27 3 -8 8 -20 11 -26 7 -7 -3 -5 2 3 13 22 27 18 94 -5 94 -22 0 -38 46
-24 71 10 19 12 19 28 5 17 -15 19 -15 31 0 9 10 24 14 41 12 17 -3 25 0 22 5
-3 6 -1 7 5 3 14 -9 23 7 13 23 -7 10 -13 10 -29 2 -29 -15 -52 -14 -52 4 0
24 -36 38 -54 20z m-286 -140 c0 -19 -20 -29 -32 -17 -8 8 -7 16 2 26 14 17
30 12 30 -9z m205 -75 c4 -6 14 -1 24 11 17 21 18 21 45 4 32 -21 20 -44 -12
-24 -25 16 -40 6 -23 -15 8 -10 9 -16 1 -21 -15 -9 -12 -25 5 -25 8 0 15 -4
15 -8 0 -10 -76 -9 -86 1 -4 4 1 16 10 26 21 23 13 43 -17 40 -49 -3 -67 1
-67 18 0 9 3 14 6 11 3 -3 17 -3 32 2 27 7 55 -1 67 -20z m-196 -35 c23 -7 32
-27 21 -45 -6 -9 -13 -5 -26 16 -10 16 -24 33 -31 37 -7 4 -13 13 -13 18 0 6
7 4 15 -5 8 -8 24 -17 34 -21z m121 -39 c0 -3 -4 -8 -10 -11 -5 -3 -10 -1 -10
4 0 6 5 11 10 11 6 0 10 -2 10 -4z m290 -5 c0 -5 -7 -11 -14 -14 -10 -4 -13
-1 -9 9 6 15 23 19 23 5z m-106 -37 c3 -9 1 -23 -4 -32 -9 -14 -10 -13 -5 6 4
13 2 22 -4 22 -6 0 -11 -5 -11 -12 0 -6 -2 -9 -5 -6 -7 7 5 38 15 38 4 0 11
-7 14 -16z m132 -53 c-7 -11 -46 -21 -46 -12 0 13 13 21 32 21 11 0 17 -4 14
-9z m164 -22 c0 -11 -27 -12 -34 0 -3 4 -3 11 0 14 8 8 34 -3 34 -14z m60 -38
c0 -12 -20 -25 -27 -18 -7 7 6 27 18 27 5 0 9 -4 9 -9z m-68 -93 c-9 -9 -15
-9 -24 0 -9 9 -7 12 12 12 19 0 21 -3 12 -12z m61 -28 c-7 -25 -19 -34 -28
-20 -7 11 11 40 25 40 5 0 6 -9 3 -20z m65 -122 c-5 -15 -23 -11 -26 6 -2 11
2 14 13 10 9 -4 14 -11 13 -16z m-38 -38 c0 -10 -26 -20 -33 -13 -3 3 -3 11 0
18 5 14 33 9 33 -5z"/>
<path d="M2151 5493 c0 -31 2 -34 9 -18 12 28 12 55 0 55 -5 0 -10 -17 -9 -37z"/>
<path d="M9710 5520 c0 -5 6 -10 14 -10 8 0 18 5 21 10 3 6 -3 10 -14 10 -12
0 -21 -4 -21 -10z"/>
<path d="M9931 5520 c1 -8 -2 -24 -6 -34 -6 -14 -3 -23 11 -33 10 -8 19 -23
19 -33 0 -28 19 -30 23 -2 2 12 7 22 11 22 5 0 8 12 7 27 -1 19 -7 29 -21 31
-11 2 -26 11 -33 20 -11 14 -13 14 -11 2z"/>
<path d="M10109 5474 c-7 -9 -23 -20 -36 -25 -36 -13 -29 -32 10 -24 17 4 33
11 35 16 2 5 13 7 25 4 12 -3 39 1 60 8 l38 14 -39 11 c-53 16 -77 15 -93 -4z"/>
<path d="M9860 5430 c0 -5 5 -10 10 -10 6 0 10 5 10 10 0 6 -4 10 -10 10 -5 0
-10 -4 -10 -10z"/>
<path d="M9850 5365 c-13 -14 -21 -27 -18 -31 7 -6 48 35 48 48 0 13 -5 10
-30 -17z"/>
<path d="M10050 5351 c0 -13 25 -20 39 -11 10 5 8 9 -4 14 -23 8 -35 8 -35 -3z"/>
<path d="M2156 5334 c-8 -20 1 -34 20 -34 15 0 17 9 8 34 -8 20 -20 20 -28 0z"/>
<path d="M10095 5249 c-10 -15 1 -23 20 -15 9 3 13 10 10 16 -8 13 -22 13 -30
-1z"/>
<path d="M10162 5242 c-13 -10 -20 -20 -17 -24 9 -9 55 15 55 30 0 16 -11 15
-38 -6z"/>
<path d="M2275 5228 c10 -33 58 -107 73 -113 9 -3 9 1 -2 18 -7 12 -21 43 -31
70 -10 26 -24 47 -32 47 -10 0 -12 -6 -8 -22z"/>
<path d="M10030 5189 c0 -5 5 -7 10 -4 6 3 10 8 10 11 0 2 -4 4 -10 4 -5 0
-10 -5 -10 -11z"/>
<path d="M5940 5042 c0 -5 10 -17 21 -28 22 -19 22 -19 10 3 -12 24 -31 39
-31 25z"/>
<path d="M7510 2150 c0 -5 -9 -19 -20 -30 -13 -13 -21 -38 -25 -77 -3 -32 -10
-90 -16 -130 -5 -40 -11 -137 -12 -215 -2 -116 1 -149 14 -175 12 -23 14 -33
5 -37 -6 -2 -3 -5 7 -5 14 -1 17 8 17 57 0 31 5 86 11 122 6 36 12 76 14 90 2
14 4 25 5 25 1 0 3 87 4 193 1 105 1 192 -1 192 -2 0 -3 -4 -3 -10z"/>
<path d="M7283 1556 c3 -7 1 -18 -4 -23 -7 -7 -5 -16 6 -27 9 -9 13 -21 9 -27
-3 -6 -2 -14 3 -18 6 -3 20 -24 31 -46 36 -70 84 -116 121 -117 41 -1 50 12
43 70 -8 75 -16 90 -47 85 -20 -4 -35 4 -70 38 -82 80 -103 95 -92 65z"/>
<path d="M7501 1174 c0 -11 3 -14 6 -6 3 7 2 16 -1 19 -3 4 -6 -2 -5 -13z"/>
<path d="M7517 1074 c4 -47 1 -67 -11 -86 -16 -24 -20 -112 -5 -102 4 2 14 -5
22 -17 10 -14 21 -19 35 -15 23 8 72 -28 72 -52 0 -15 1 -15 17 1 16 16 15 19
-15 59 -41 57 -88 157 -111 238 -8 29 -9 25 -4 -26z"/>
<path d="M10040 933 c-96 -30 -226 -70 -289 -89 -63 -20 -140 -42 -170 -50
-49 -13 -425 -131 -491 -154 -14 -5 -92 -30 -175 -55 -82 -26 -190 -60 -240
-75 -167 -53 -225 -70 -240 -70 -7 0 -16 -4 -19 -9 -3 -4 20 -2 52 6 31 8 82
16 112 18 80 5 172 16 194 22 12 3 16 1 12 -6 -9 -14 -5 -14 37 4 31 13 36 13
47 0 7 -8 19 -15 27 -15 8 0 11 -5 8 -10 -3 -6 -2 -10 4 -10 5 0 13 4 16 10 9
14 41 7 65 -15 16 -14 21 -16 18 -5 -2 8 -7 18 -13 22 -6 4 -2 8 8 8 10 0 24
-6 31 -13 14 -14 19 -77 6 -77 -5 0 -12 -10 -16 -22 -13 -37 -13 -48 -1 -48 8
0 7 -4 -1 -12 -17 -17 -15 -24 9 -25 27 -2 44 15 46 46 2 28 19 42 41 33 10
-3 13 -1 8 6 -4 7 -5 12 -2 12 3 0 12 -12 20 -27 9 -16 15 -21 16 -13 0 10 11
17 27 18 24 2 25 1 10 -10 -13 -10 -14 -17 -6 -28 9 -13 10 -12 5 2 -3 10 -1
18 5 18 14 0 7 -32 -8 -38 -7 -2 -13 4 -13 13 0 11 -5 15 -15 11 -9 -3 -18 0
-21 7 -6 16 -40 15 -56 -1 -9 -9 -9 -12 0 -12 7 0 12 4 12 10 0 5 9 2 19 -7
11 -9 17 -23 14 -32 -4 -9 -2 -13 2 -8 5 4 17 -1 28 -10 15 -13 18 -14 12 -3
-8 13 -6 13 8 1 9 -7 14 -18 10 -24 -4 -6 -1 -7 6 -3 7 5 10 15 6 23 -4 13 -3
14 9 4 13 -11 13 -15 -2 -31 -14 -17 -18 -18 -32 -5 -24 22 -29 19 -27 -19 1
-19 5 -32 10 -29 4 2 7 -1 7 -6 0 -6 -6 -11 -12 -11 -9 0 -8 -4 2 -10 13 -9
13 -11 1 -19 -8 -5 -21 -7 -30 -4 -13 4 -13 2 2 -10 10 -9 18 -31 20 -58 l2
-44 543 -3 542 -2 0 495 c0 390 -3 495 -12 494 -7 -1 -92 -26 -188 -56z m-960
-507 c0 -3 -4 -8 -10 -11 -5 -3 -10 -1 -10 4 0 6 5 11 10 11 6 0 10 -2 10 -4z
m94 -34 c3 -5 -1 -9 -9 -9 -8 0 -12 4 -9 9 3 4 7 8 9 8 2 0 6 -4 9 -8z m64
-106 c-7 -8 -15 -12 -17 -11 -5 6 10 25 20 25 5 0 4 -6 -3 -14z m19 -89 c-18
-32 -30 -42 -52 -43 -14 -1 -21 6 -22 17 -2 19 16 22 28 5 8 -10 29 1 29 15 0
6 -4 7 -10 4 -14 -8 -13 8 1 22 6 6 17 9 25 6 10 -4 11 -9 1 -26z"/>
<path d="M7611 733 c-8 -21 -28 -63 -45 -93 -47 -81 -50 -97 -18 -129 15 -14
25 -32 24 -38 -2 -7 2 -13 8 -13 6 0 8 -5 4 -11 -3 -6 -8 -25 -9 -43 -5 -44
-59 -136 -80 -136 -3 0 -3 5 1 12 4 7 3 8 -5 4 -6 -4 -9 -12 -6 -17 8 -12 -36
-56 -61 -61 -10 -2 -18 -10 -16 -17 1 -7 -2 -10 -7 -7 -5 3 -14 -1 -21 -10 -7
-8 -19 -13 -27 -10 -9 4 -11 1 -7 -6 5 -8 0 -9 -15 -5 -16 4 -21 2 -17 -8 2
-7 -2 -21 -10 -32 -9 -10 -13 -12 -9 -6 4 8 1 11 -8 7 -18 -6 -17 -51 0 -51 7
0 11 3 10 6 -2 7 7 11 23 11 15 0 12 -12 -9 -39 -14 -18 -20 -21 -26 -11 -5 9
-4 11 3 6 7 -4 12 -3 12 2 0 6 -16 10 -35 10 -29 0 -34 -3 -25 -13 6 -8 18
-11 26 -8 7 3 16 -2 20 -10 4 -12 42 -15 240 -16 l234 -2 1 28 c1 15 1 83 1
150 -1 121 -1 123 -28 146 -25 22 -27 29 -25 94 1 39 -6 104 -15 145 -9 40
-17 87 -19 103 -2 36 -31 105 -42 105 -5 0 -15 -17 -22 -37z m-281 -713 c0 -5
-5 -10 -11 -10 -5 0 -7 5 -4 10 3 6 8 10 11 10 2 0 4 -4 4 -10z"/>
<path d="M8830 241 c0 -28 17 -35 29 -13 11 21 6 32 -16 32 -7 0 -13 -9 -13
-19z"/>
<path d="M9030 235 c7 -8 17 -15 22 -15 6 0 5 7 -2 15 -7 8 -17 15 -22 15 -6
0 -5 -7 2 -15z"/>
<path d="M7255 119 c-4 -6 -5 -12 -2 -15 2 -3 7 2 10 11 7 17 1 20 -8 4z"/>
<path d="M7210 91 c0 -5 7 -11 14 -14 10 -4 13 -1 9 9 -6 15 -23 19 -23 5z"/>
<path d="M7146 74 c-3 -9 -1 -12 4 -9 13 8 40 -19 41 -42 0 -16 1 -16 8 2 11
27 5 40 -24 53 -18 9 -24 8 -29 -4z"/>
<path d="M9095 40 c-3 -5 1 -10 9 -10 9 0 16 5 16 10 0 6 -4 10 -9 10 -6 0
-13 -4 -16 -10z"/>
</g>
</svg>
